<?xml version="1.0" encoding="utf-8"?>

<!DOCTYPE svg PUBLIC "-//W3C//DTD SVG 1.1//EN" "http://www.w3.org/Graphics/SVG/1.1/DTD/svg11.dtd">
<svg version="1.1" id="Layer_1" xmlns="http://www.w3.org/2000/svg" xmlns:xlink="http://www.w3.org/1999/xlink" x="0px" y="0px"
	 viewBox="295.7124 243.6575 1334.3466 1042.7267" enable-background="new 295.7124 243.6575 1334.3466 1042.7267"
	 xml:space="preserve">
<g>
	<path fill="#9E4F19" stroke="#9E4F19" stroke-width="0.0938" d="M994.96,272.01c26.72-3.28,53.67-2.07,80.4999-1.19
		c30.13,1.31,60.29,3.63,90.02,8.86c19.79,3.51,39.4301,8.34,58.13,15.81c16.24,6.55,31.8,15.21,44.88,26.93
		c10.95,9.62,19.98,21.35,26.79,34.21c8.6599,16.39,13.78,34.39,17.37,52.51c4.9399,25.4,7.33,51.2,10.46,76.87
		c5.02,43.24,12.28,86.39,25.0701,128.07c4.1799,13.84,8.99,27.48,14.1599,40.98c11.35-20.44,22.64-40.92,33.65-61.54
		c-6.73-3.78-12.67-8.91-17.74-14.7c-5.08-5.64-7.1-13.37-7.26-20.8c-0.35-12.59,3.0701-24.94,7.51-36.61
		c3.66-9.17,7.9-18.21,13.8101-26.16c2.46-3.6,3.5699-7.9,5.1899-11.91c1.6801-5.1,3.83-10.11,4.77-15.42
		c1.0599-13.33,1.99-26.67,3.0499-39.99c1.3401-15.56,15.42-28.41,30.78-29.58c7.91-0.6,16.0701,3.23,20.16,10.13
		c8.9299-12.46,27.28-16.58,40.71-9.3c5.12,2.75,8.86,7.46,11.13,12.75c10.11-4.92,22.6-4.85,32.48,0.62
		c5.7301,3.1,10.2001,8.32,12.3401,14.48c6.0599-2.2,12.7799-2.75,19.0299-0.96c8.8301,2.22,16.39,8.98,19.51,17.55
		c3.39,9.01,2.1801,19.08-1.12,27.93c-1.1899,3.13-3.5699,5.56-5.64,8.11c-4.6699,5.73-9.34,11.45-14,17.18
		c10.6001,0.78,19,8.66,24.1001,17.47c2.1899,3.2,2.2899,7.52,0.48,10.92c-2.35,4.45-6.0601,7.95-9.6,11.45
		c-16.65,15.68-34.3101,30.36-49.67,47.36c-10.16,12.73-20.86,25.3-34.01,35.06c-7.8199,5.73-17.01,10.44-26.92,10.32
		c-4.9199-0.01-9.49-1.9-13.95-3.72c-19.67,35.83-39.25,71.7-58.9,107.54c-3.49,6.64-7.4299,13.07-10.6699,19.84
		c2.9299,18.86,5.8099,37.8,6.95,56.9c6.27,91.41-12.86,184.65-55.72,265.72c-18.75,35.3401-42.05,68.39-70.01,97.0701
		c-24.8301,25.28-53.42,47.1699-85.37,62.66c-22.61,11.0699-46.9,18.7999-71.8401,22.33c-19.4199,2.59-39.09,2.8099-58.6399,2.03
		c-45.2701-1.92-90.3701-12.02-131.5001-31.1901c-34.53-15.98-66.14-38.11-93.24-64.78c-27.18-26.5499-50.01-57.3999-68.56-90.5099
		C733.49,1019.29,714.46,959.5,704.33,898.61c-46.8-15.48-93.82-30.32-140.71-45.53c-2.94,7.99-7.14,15.51-12.31,22.27
		c-5.34,6.88-13.83,10.53-22.26,11.79c-12.68,1.93-25.59,0.04-37.98-2.81c-8.97-2.2-17.9-4.79-26.32-8.61
		c-7.89,6.6801-18.8,8.2401-28.73,6.38c-17.92-3.18-33.91-12.62-49.07-22.25c-6.11-3.59-8.6-11.09-8.49-17.85
		c-0.27-7.28,2.57-14.27,6.61-20.21c-0.96-5.23-1.57-10.62-0.77-15.93c1.39-8.84,5.53-16.97,10.44-24.34
		c-3.58-12.7-0.53-26.48,6.78-37.28c-17.17-6.76-34.26-13.73-51.47-20.4c-4.53-1.69-8.69-4.39-12-7.92
		c-11.35-12.07-11.74-32.42-1.25-45.14c6.94-8.71,18.29-12.84,29.21-12.8c4.95,0.09,10.2-0.02,14.71,2.36
		c25.29,12.91,50.59,25.8199,76.19,38.1c3.93-7.83,7.37-16.46,14.5-22c5.17-4.04,12.63-4.21,18.29-1.09
		c19.12,9.61,37.71,20.32,55.31,32.51c11.21,7.92,22.27,16.36,31.13,26.94c5.56,6.81,10.55,15.11,9.85,24.24
		c-0.69,8.03-2.63,15.9-4.93,23.6c38.27,12.29,76.52,24.62,114.76,37c-1.89-34.53-1.19-69.16,0.52-103.69
		c2.42-44.65,7.61-89.22,16.85-132.99c8.34-39.53,20.02-78.45,36.34-115.44c14.65-33.13,33.18-64.7,56.4-92.57
		c21.61-25.89,47.3-48.51,76.41-65.63C916.6,288.92,955.4,276.54,994.96,272.01 M1022.76,286.94c-20.09,0.89-40.19,3.2-59.75,8.02
		c-33.93,8.1-66.25,23.01-94.27,43.82c-29.77,21.91-54.55,50.08-74.59,81.03c-1.98,1.88-3.23,4.35-4.69,6.62
		c-20.91,32.94-36.76,68.88-49.11,105.83c-24.61,74.57-35.25,153.39-34.81,231.79c0.51,54.82,6.62,109.67,19.48,163
		c9.76,40.35,23.45,79.84,41.93,117.05c16.95,34.01,38.01,66.12,63.73,94.17c12.53,13.4,25.7,26.45,40.58,37.23
		c23.2,17.75,48.5,32.97,75.73,43.65c26.88,11.3099,55.54,18.11,84.46,21.5399c10.4,1.02,20.8101,2.03,31.27,2.38
		c3.2001,1.51,6.91,0.4401,10.3401,0.7201c4.3899-0.27,8.98,0.74,13.23-0.7201c33.1899-0.6399,66.1-9.0699,95.71-24.0599
		c34.22-17.13,64.3199-41.8101,89.75-70.27c1.7-1.79,3.45-3.6,4.54-5.84c4.7799-3.74,8.13-9,11.99-13.63
		c43.6699-56.26,72.1899-123.55,85.75-193.28c17.38-89.56,9.26-184.23-25.01-268.92c-8.41-20.81-15.61-42.1-21.52-63.75
		c-11.45-41.29-17.65-83.79-22.41-126.3c-2.97-24.77-5.39-49.7-11.0399-74.04c-4.4501-19.05-11.4-37.93-23.4-53.58
		c-9.23-12.18-21.36-21.95-34.66-29.35c-16.25-9.05-34.04-14.93-52.0599-19.29c-22.2201-5.19-44.88-8.54-67.62-10.26
		c-3.9801-0.78-8.05-0.26-12.03-0.9c-5.3-0.92-10.7101-0.31-16.02-1.05c-6.73-0.91-13.52-0.3-20.26-0.8
		c-7.1899-0.66-14.42-0.76-21.62-0.8c-3.21-1.55-6.9301-0.5-10.34-0.73C1031.63,286.57,1026.99,285.35,1022.76,286.94
		 M1468.6,409.57l-0.34,0.04c-1.8201,2.76-4.5701,4.88-5.62,8.11c-5.8,14.49-11.63,28.97-17.36,43.48c-1.04,2.41-1.61,5.08-3.3,7.16
		c0.47-2.36,1.48-4.68,1.5701-7.08l0.22,0.45c1.95-7.91,4.11-15.78,5.5-23.82c1.0499-6.58,2.34-13.38,0.9399-20
		c-1.4399-4.38-4.4199-8.99-9.23-10.01c-5.91-1-11.66,1.63-16.47,4.81c-1.8101,2.05-3.87,3.87-5.53,6.05
		c-3.11,2.82-3.97,7.24-4.29,11.25c-0.71,9.35-1.46,18.69-2.11,28.05c-0.64,6.33-0.37,12.86-2.85,18.85
		c-3.36,9.2-5.59,19.2-11.9199,26.93c-8.14,13.54-14.2201,28.52-16.76,44.16c-0.77,7.63-1.49,16.23,3.0299,22.91
		c12.04,15.4301,32.29,24.83,51.9301,21.51c1.74,4.72,4.7,8.91,8.48,12.22c7.35,6.54,16.3101,11.01,25.53,14.28
		c7.85,2.78,16.1799-0.89,22.7999-5.09c13.8501-9.18,24.79-21.99,35.05-34.89c17.13-19.59,37.83-35.57,56.04-54.07
		c1.37-1.71,4.1799-4.02,2.39-6.31c-3.01-4.76-6.9701-9.37-12.38-11.35c-6.27-2.24-13.0801-0.17-18.6001,3.04
		c-4.49,2.76-9.2899,5.54-12.47,9.83c-3.8099,2.69-6.3199,6.9-10.46,9.14c15.7-19.86,31.84-39.37,47.7999-59.02
		c1.89-2.52,2.3201-5.76,3.01-8.75c1.28-6.06,0.8-12.79-2.5699-18.12c-6.85-10.48-23.97-11.42-32.22-2.23l-0.0901,0.02
		c0.17,1.48-0.5499,2.76-1.36,3.92c-13.5699,19.38-27.25,38.68-40.72,58.12c-0.66,1.05-1.5599,1.8-2.6899,2.27
		c-0.3401-2.03,1.73-3.13,2.33-4.86c11.8-15.95,23.14-32.31,32.99-49.55c2.83-5.24,6.28-10.75,5.59-16.97
		c-0.1699-6.27-4.5299-11.88-10.1599-14.37c-6.8601-3.25-14.9801-2.46-21.7101,0.71l-0.38,0.03c-2.58,2.36-5.4099,4.62-7.0499,7.79
		c-10.2001,19.53-19.9601,39.29-30.2101,58.8c-0.5599-0.2-1.6899-0.59-2.25-0.79c0.6001-1.21,1.52-2.32,1.75-3.68
		c8.8301-16.17,16.4601-33.02,22.9701-50.25c1.6499-4.93,3.5599-10.3,1.95-15.48c-1.34-5.02-5.15-9.4-10.13-11
		C1482.3,403.45,1474.46,405.45,1468.6,409.57 M1367.22,667.03c7.4301,19.71,13.72,39.84,18.6801,60.31
		c0.7,3.23,1.45,6.45,2.33,9.65c0.39-0.39,1.17-1.17,1.5601-1.56c0.71,0.08,2.13,0.25,2.84,0.33
		c19.6899-36.65,39.54-73.22,59.26-109.86c-4.14,5.1-7.1801,11-10.72,16.5099c2.7799-7.41,7.5199-13.92,10.8999-21.08
		c-8.4399-4.57-16.5-10.51-21.6499-18.76c-8.6901,0.16-17.3301-1.4-25.4801-4.38C1392.35,621.13,1379.8199,644.1,1367.22,667.03
		 M361,667.78c-8.7,1.22-16.97,6.68-20.42,14.93c-3.6,8.12-2.45,18.0099,2.78,25.17c2.67,2.64,5.58,5.2,9.12,6.59
		c26.05,10.25,52.01,20.73,78.06,31c1.04,0.38,1.98,0.95,2.81,1.71c-7.02,0.05-14.1-1.75-21.03-1.2
		c-8.85,9.87-12.26,24.57-7.02,37.01c-4.84,7.02-9.57,14.47-11.29,22.95c-1.3,6.03-0.24,12.27,2.27,17.85
		c-5.6,5.05-9.01,12.69-8.19,20.28c0.43,2.9,1.3,6.2,4.05,7.76c14.4,9.26,29.69,17.89,46.67,21.26c-1.78,0.35-3.47,1.03-5.15,1.71
		c6.53,1.07,13.45,0.32,19.42-2.62c3.65-1.74,6.94-4.61,8.44-8.45c17.87,8.83,37.67,14.01,57.57,14.79
		c7.3799,0.72,15.1299-0.8,21.18-5.24c8.26-6.0601,13.39-15.4901,16.21-25.16c3.76-14.02,3.48-29.39-2.19-42.86
		c4.48-2.75,8.08-6.7,10.92-11.08c6.7599-10.48,10.55-22.8,11.03-35.25c-0.02-3.42-0.71-6.85-2.2-9.92
		c-4.05-8.87-10.88-16.33-19.05-21.58l-0.17-0.34c-21.49-16.97-45.17-30.98-69.6-43.27c-3.16-1.94-7.36-1.15-9.72,1.67
		c-5.24,5.85-7.92,13.4-11.54,20.27c-3.36,0.07-7.21-0.86-9.83,1.83c-25.75-12.76-51.54-25.44-77.17-38.44
		C372.09,666.54,366.27,667.15,361,667.78 M577.04,791.96c-2.27,6.49-6.69,12-11.42,16.89c3.29,11.33,3.12,23.35,1.01,34.88
		c45.3,14.25,90.39,29.22,135.68,43.53c-0.34-2.68-0.37-5.44-1.21-8.02c-2.29-16.21-3.68-32.55-4.14-48.91
		c-39.39-12.6-78.82-25.11-118.18-37.78l0.2-0.43C578.49,792.08,577.52,792,577.04,791.96z"/>
	<path opacity="0.88" fill="#934F1C" stroke="#934F1C" stroke-width="0.0938" enable-background="new    " d="M1022.76,286.94
		c4.23-1.59,8.87-0.37,13.28-0.72c3.4099,0.23,7.13-0.82,10.34,0.73C1038.5,287.03,1030.63,287.04,1022.76,286.94z"/>
	<path fill="#F0B054" stroke="#F0B054" stroke-width="0.0938" d="M963.01,294.96c19.56-4.82,39.66-7.13,59.75-8.02
		c7.87,0.1,15.74,0.09,23.62,0.01c7.2,0.04,14.4301,0.14,21.62,0.8c6.74,0.5,13.53-0.11,20.26,0.8
		c5.3099,0.74,10.72,0.13,16.02,1.05c3.98,0.64,8.0499,0.12,12.03,0.9c-9.7201,0.68-19.14,3.32-28.6801,5.12
		c-12.95,3.23-25.78,7.05-38.26,11.79c-4.39,1.78-9.49,2.59-12.85,6.2c-5.72-1.18-12.15-1.71-17.3,1.56
		c-5.29,2.76-9.4,7.3-12.05,12.6c-5.57,2.21-10.41,5.79-15.4,9.02c-5.14,3.6-10.64,6.75-15.16,11.15
		c-3.97-6.53-10.77-12.12-18.72-12.17c-14.1-0.48-28.14,2.27-41.54,6.49c-17.85,5.74-34.83,14.16-50.19,24.91
		c-13.78,9.69-26.45,21.48-34.91,36.19c-0.91,1.63-1.66,3.35-2.37,5.08c26.61-17.15,56.72-29.03,88.05-33.87
		c9.37-1.05,18.86-2.46,28.26-0.88c-3.32,4.48-6.89,8.79-11,12.57c-37.72,41.49-64.26,92.12-81.85,145.13
		c-3.28,8.9-5.56,18.12-8.63,27.08c-3.21-7.0099-6.68-14.41-13.25-18.9c-7.82-5.92-19.53-6.62-27.57-0.76
		c-3.95,3.09-7.47,6.88-9.61,11.46c-5.42,11.16-5.77,24.49-1.65,36.12c3.44,9.55,10.4,18.48,20.45,21.47
		c7.11,2.49,14.85,0.04,20.86-4.03c-7,36.04-11.76,72.53-13.94,109.17c0.1,5.36-1.07,10.64-1,16c0.03,5.4,0.01,10.81-0.27,16.21
		c-6.59-2.52-14.5-0.97-19.47,4.07c-5.49,5.9-8.33,13.7599-9.59,21.61c-2.55,16.71,0.72,34.08,8.38,49.08
		c5.1,9.19,12.56,18.78,23.58,20.59c-0.9,2.88-0.59,5.89-0.1,8.82c7.02,64.32,23.59,128.12,53.0699,185.9301
		c0.54,1.2699,1.02,2.5699,1.57,3.87c-4.16-3.79-8.57-7.79-14.25-8.9901c-9.33-2.6599-19.5,2.1201-24.97,9.8
		c-10.51,14.64-10.12,35.48-0.36,50.39c4.78,6.76,11.91,12.46,20.37,13.38c7.33,0.5,14.73-2.67,19.46-8.28
		c10.3-11.11,11.28-27.7999,7.82-41.89c2.04,3.0601,3.73,6.3401,5.79,9.4c12.06,15.75,25.91,30.03,40.3,43.65
		c12.52,11.0599,25.78,21.24,39.89,30.1899c35.51,22.41,76.26,35.9,117.8101,41.3c13.9099,1.65,27.89,3.1899,41.9299,2.92
		c11-0.12,22.0601,0.48,33.02-0.8501c22.2001-1.8899,44.13-6.74,65.15-14.12c15.62-5.47,30.47-12.9199,44.77-21.2
		c1.4199-0.74,2.91-1.35,4.39-1.98c-1.0901,2.24-2.8401,4.0499-4.54,5.84c-25.4301,28.46-55.53,53.14-89.75,70.27
		c-29.61,14.99-62.52,23.42-95.71,24.0599c-7.86-0.12-15.7201-0.11-23.5701,0c-10.46-0.35-20.87-1.36-31.27-2.38
		c1.67-1.0499,3.52-1.9199,5.5701-1.71c10.45,0.52,20.76-1.5699,31.12-2.63c14.02-1.97,27.92-4.7,41.7999-7.45
		c21.7201-3.9501,43.8-7.22,64.4401-15.39c15.92-6.48,31.83-17.58,37.38-34.61c-23.42,13.58-51.16,16.7-77.77,16.15
		c-21.71-1.4-43.37-4.01-64.67-8.4801c-11.75-1.87-23.35-4.5399-34.6699-8.1599c-9.79-3.4601-19.86-6-29.6-9.5901
		c-15.61-4.61-31.55-9.7899-48.04-8.85c-9.82-0.51-19.73,1.36-28.71,5.35c-4.34,2.4801-8.78,6.3401-9.23,11.66
		c-0.85,7.3,2.58,14.39,6.94,20.05c6.7,8.12,14.35,15.49,22.85,21.71c-0.47,0.1-1.4,0.3101-1.87,0.41
		c-27.23-10.6801-52.53-25.9-75.73-43.65c-20.3-28.46-39.55-57.7-56.46-88.3101C776.39,1018.28,748.82,943.13,735.64,865.27
		c-12.65-73.56-12.55-149.06-2.02-222.87c10.78-76.36,32.35-150.91,60.53-222.59c20.04-30.95,44.8199-59.12,74.59-81.03
		C896.76,317.97,929.08,303.06,963.01,294.96z"/>
	<path fill="#F6B95E" stroke="#F6B95E" stroke-width="0.0938" d="M1087.63,295.62c9.54-1.8,18.96-4.44,28.6801-5.12
		c22.74,1.72,45.3999,5.07,67.62,10.26c18.0199,4.36,35.8099,10.24,52.0599,19.29c13.3,7.4,25.4301,17.17,34.66,29.35
		c12,15.65,18.95,34.53,23.4,53.58c5.6499,24.34,8.0699,49.27,11.0399,74.04c4.76,42.51,10.9601,85.01,22.41,126.3
		c5.91,21.65,13.11,42.94,21.52,63.75c34.27,84.69,42.39,179.36,25.01,268.92c-13.5601,69.73-42.0801,137.02-85.75,193.28
		c-3.86,4.63-7.2101,9.89-11.99,13.63c-1.48,0.63-2.9701,1.24-4.39,1.98c-14.3,8.28-29.15,15.73-44.77,21.2
		c-21.02,7.38-42.95,12.2301-65.15,14.12c-10.96,1.3301-22.02,0.7301-33.02,0.8501c-14.0399,0.2699-28.02-1.27-41.9299-2.92
		c-41.55-5.4-82.3-18.89-117.8101-41.3c-14.11-8.95-27.37-19.13-39.89-30.1899c-14.39-13.62-28.24-27.9-40.3-43.65
		c-2.0601-3.0599-3.75-6.34-5.79-9.4c-2.26-5.0399-4.84-9.9199-8.07-14.4099c-0.55-1.3-1.03-2.6001-1.57-3.87
		C844.12,977.5,827.55,913.7,820.53,849.38c-0.4901-2.93-0.8-5.94,0.1-8.82c3.43,0.27,6.86-0.35,10.3-0.03
		c10.37,34.53,26.95,67.49,50.4,95.0099c19.6,23.01,44.12,41.91,71.71,54.34c38.19,17.42,81.58,22.07,122.8801,15.55
		c40.7799-6.23,79.5299-22.93,113.48-46.12c51.85-35.38,92.21-85.93,119.95-141.91c12.61-25.44,22.8-52.08,30.55-79.39
		c1.58-4.19-1.51-9.14-5.97-9.5c-3.3101-0.58-6.66,1.52-7.78,4.63c-7,16.48-18.0601,30.97-30.9,43.32
		c-0.14-8.54,0.27-17.2-1.97-25.53c-2.17-9.63-6.0901-19.1-12.62-26.6c-4.3201-4.58-10.2101-8.36-16.6801-8.36
		c-4.1-0.08-7.85,1.86-11.24,3.95c1.1-5.25,2.6801-10.47,2.33-15.9c0.2001-9.76-0.3899-21.11-7.84-28.35
		c-4.6799-4.73-11.85-4.13-17.87-3.27c-9.89,2.23-19.13,6.55-28.4399,10.43c-14.75,6.34-30.92,8.4-46.8,9.54
		c-11.66,1.59-23.42,0.01-34.98-1.6c-18.24-3.48-31.0701-18.5-48.05-24.91c-6.11-1.98-13.9-3.71-19.24,0.98
		c-5.95,6.24-8.33,14.83-13.27,21.7599c-3.24,4.9901-7.5299,9.15-12.36,12.6c-17.1299,13.52-38.16,20.83-59.14,25.89
		c-14.31,3.43-28.86,5.71-43.46,7.48c-4.66,0.62-9.4,0.18-14.05,0.94c-4.48,0.79-9.03,0.27-13.53,0.65c-8.86,1.01-18,1.19-26.4,4.5
		c-3.06,1.3-6.07,3.36-7.56,6.42c-0.84,3.62,0.63,7.25,2.8,10.11c4.98,7.62,12.68,12.75,19.91,18.03
		c23.14,15.23,49.7401,23.66,75.33,33.71c21.38,8.22,43.91,13.83,66.8199,15.14c10.6801-0.34,21.4301,0.66,32.05-1.01
		c21.8101-3.02,43.35-8,64.36-14.59c10.17-2.73,19.98-6.58,29.8101-10.3199c17.6699-6.84,34.98-14.82,51-24.9901
		c13.45-8.2,25.7999-18.29,35.9199-30.39c-4.34,21.97-1.1599,47.04,14.1001,64.31c-28.2401,16.65-58.9901,28.7-90.4501,37.67
		c-40.24,11.31-81.91,17.61-123.71,18.46c-42.94,0.66-86.59-3.9901-126.97-19.29c-25.61-9.92-50.29-24.65-67.16-46.75
		c-0.12-13.48-4.71-26.76-12.14-37.93c-4.1-5.86-9.41-11.1-16.02-14.03c0.28-5.4,0.3-10.81,0.27-16.21c-0.07-5.36,1.1-10.64,1-16
		c2.18-36.64,6.94-73.13,13.94-109.17c9.33-8.47,13.42-21.47,12.6-33.83c-0.4-3.88-1.33-7.67-1.83-11.53
		c3.07-8.96,5.35-18.18,8.63-27.08c17.59-53.01,44.1299-103.64,81.85-145.13c4.11-3.78,7.68-8.09,11-12.57
		c6.12,0.46,12.11,1.98,17.76,4.39c5.89,2.72,13.24-0.48,16.16-6.05c2.59-4.62,2.27-10.24,1.29-15.26
		c-1.01-3.05-2.22-6.04-3.79-8.83c4.52-4.4,10.02-7.55,15.16-11.15c4.99-3.23,9.83-6.81,15.4-9.02c-3.91,8.44-5.81,17.98-4.16,27.23
		c1.49,10.88,6.85,21.69,16.19,27.86c5.8799,4.04,13.73,5.19,20.45,2.67c7.27-2.76,13.01-8.81,15.95-15.96
		c4.1-8.66,4.3301-18.64,2.8-27.94c-2.24-12.05-10.1-23.7-21.88-28.02c3.36-3.61,8.46-4.42,12.85-6.2
		C1061.85,302.67,1074.6801,298.85,1087.63,295.62 M1129.78,337.78c-6.79,4.35-11.03,11.93-12.28,19.79l-0.34,0.06
		c-0.64,5.93-0.2201,12.61,4.0599,17.19c3.26,3.81,8.76,5.03,13.51,3.89c10.03-5.9,21.72-8.48,33.27-8.95
		c13.11-0.74,26.27,0.32,39.1801,2.57c-2.5,12.68-1.6901,26.77,5.7999,37.71c4.65,7.6,12.84,13.56,21.97,13.72
		c9.05,0.37,17.3101-5.52,21.8201-13.06c3.98-6.34,5.15-13.83,6.4199-21.07c3.3401,1.46,6.38,3.56,9.89,4.65
		c-0.71-1.33-1.4099-2.65-2.14-3.95l-0.37,0.03c-2.7599-4.41-6.25-8.31-9.7799-12.11c0.51-4.45-1.8501-8.43-3.7201-12.26
		c-3.7699-7.33-10.2899-13.48-18.36-15.64c-5.36-1.12-11.23-0.87-16.0499,1.92c-23.51-11.25-49.4401-18.6-75.67-18.01
		C1141.1899,334.76,1134.85,334.47,1129.78,337.78 M1106.58,443.55c-15.58,12.69-27.25,29.73-34.87,48.24
		c-7.86,19.62-11.73,41.02-10.0699,62.14c-0.4301,6.76,1.01,13.41,2.12,20.04c5.3099,27.95,19.15,54.78,40.99,73.34
		c14.34,12.26,32.34,20.52,51.23,22.11c20.39,1.94,41.21-3.96,58.04-15.51c12.66-8.79,23.63-20.21,31.4199-33.52l0.3201-0.12
		c10.67-17.38,18.01-36.96,20.3-57.28c2.8899-24.29-1.0901-49.18-10.42-71.73c-2.2001-4.77-3.9501-9.92-7.12-14.12
		c-6.26-12.26-15.3201-23.03-25.6901-32.02c-16.25-13.95-37.36-22.65-58.9099-22.42C1143.0699,422.33,1122.61,430.44,1106.58,443.55
		 M947.65,438.81c-19.84,2.52-38.28,12.39-52.56,26.23c-22.29,21.76-35.11,52.12-37.9301,82.92
		c-3.3199,35.08,6.02,71.87,28.19,99.58c15.02,18.91,36.6801,33.18,60.82,36.7c25.55,4.08,52.23-4.57,71.67-21.37
		c28.45-24.24,43.21-61.95,43.57-98.87c-0.42-5.97,0.52-11.99-0.6801-17.9c-1.66-15.15-5.47-30.1-11.8099-43.98
		c-9.4701-20.95-24.67-39.68-44.58-51.47C987.45,440.56,967.18,436.16,947.65,438.81 M1252.38,914.47
		c-4.91,0.85-8.6,4.6201-11.51,8.41c-7.59,10.93-8.41,24.9-7.35,37.76c1.1699,9.34,3.38,18.7,7.77,27.1
		c3.9299,8.11,9.33,16.01,17.36,20.53c7.33,4.69,17.64,3.3,23.47-3.16c6-6.94,8.51-16.09,9.52-25.03
		c1.25-15.08-1.63-30.58-8.59-44.04c-2.5801-5.75-6.62-10.64-11.2101-14.9C1266.87,916.06,1259.48,913.11,1252.38,914.47
		 M1090.35,1011.47c-6.15,1.5601-11.45,5.57-15.58,10.28c-7.7001,8.99-11.77,20.49-14.2001,31.92
		c-1.6499,9.62-2.87,19.47-1.87,29.23c1.17,18.2899,5.79,36.87,16.13,52.21c5.51,7.8201,12.74,15.1801,22.15,17.9401
		c8.87,2.6699,18.8101-0.3601,25.3301-6.76c7.1399-6.4501,11.48-15.3401,14.5599-24.3c8.29-26.87,5.95-56.76-5.65-82.3
		c-5.1-10.22-12.0499-20.09-22.2899-25.65C1103.25,1011.11,1096.6,1010.09,1090.35,1011.47z"/>
	<path fill="#DEA550" stroke="#DEA550" stroke-width="0.0938" d="M1019.22,315.17c5.15-3.27,11.5801-2.74,17.3-1.56
		c11.78,4.32,19.64,15.97,21.88,28.02c1.53,9.3,1.2999,19.28-2.8,27.94c-2.9399,7.15-8.6799,13.2-15.95,15.96
		c-6.72,2.52-14.5701,1.37-20.45-2.67c-9.34-6.17-14.7-16.98-16.19-27.86c-1.65-9.25,0.25-18.79,4.16-27.23
		C1009.82,322.47,1013.93,317.93,1019.22,315.17z"/>
	<path fill="#87622C" stroke="#87622C" stroke-width="0.0938" d="M1129.78,337.78c5.0699-3.31,11.4099-3.02,17.21-3.52
		c26.23-0.59,52.16,6.76,75.67,18.01c13.89,6.73,26.9399,15.3,38.13,25.98c3.5299,3.8,7.02,7.7,9.7799,12.11
		c-0.37,0.04-1.11,0.1-1.48,0.13c-28.83-23.47-64.8199-38.55-102.09-40.56c-15.36-0.71-31.0699,0.92-45.4399,6.63
		c-1.3401,0.44-2.7001,0.74-4.0601,1.01C1118.75,349.71,1122.99,342.13,1129.78,337.78z"/>
	<path fill="#87622C" stroke="#87622C" stroke-width="0.0938" d="M916.35,342.26c13.4-4.22,27.44-6.97,41.54-6.49
		c7.95,0.05,14.75,5.64,18.72,12.17c1.57,2.79,2.78,5.78,3.79,8.83c-19.4-6.32-40.37-5.85-60.11-1.43
		c-13.5099,3.02-26.75,7.5-39.02,13.92c-17,7.98-32.32,19.21-45.85,32.16c-1.22,0.97-2.36,2.77-4.17,1.94
		c8.46-14.71,21.13-26.5,34.91-36.19C881.52,356.42,898.5,348,916.35,342.26z"/>
	<path fill="#A27836" stroke="#A27836" stroke-width="0.0938" d="M1121.5601,356.56c14.37-5.71,30.08-7.34,45.4399-6.63
		c37.27,2.01,73.26,17.09,102.09,40.56c0.37-0.03,1.11-0.09,1.48-0.13l0.37-0.03c0.7301,1.3,1.4301,2.62,2.14,3.95
		c-3.51-1.09-6.5499-3.19-9.89-4.65c-17.7799-8.27-36.74-13.81-56.0099-17.3c-12.91-2.25-26.0701-3.31-39.1801-2.57
		c-11.55,0.47-23.24,3.05-33.27,8.95c-4.75,1.14-10.25-0.08-13.51-3.89c-4.28-4.58-4.7-11.26-4.0599-17.19l0.34-0.06
		C1118.86,357.3,1120.22,357,1121.5601,356.56z"/>
	<path fill="#DEA550" stroke="#DEA550" stroke-width="0.0938" d="M1222.66,352.27c4.8199-2.79,10.6899-3.04,16.0499-1.92
		c8.0701,2.16,14.5901,8.31,18.36,15.64c1.87,3.83,4.2301,7.81,3.7201,12.26C1249.6,367.57,1236.55,359,1222.66,352.27z"/>
	<path fill="#A27836" stroke="#A27836" stroke-width="0.0938" d="M920.29,355.34c19.7401-4.42,40.71-4.89,60.11,1.43
		c0.98,5.02,1.3,10.64-1.29,15.26c-2.92,5.57-10.27,8.77-16.16,6.05c-5.65-2.41-11.64-3.93-17.76-4.39
		c-9.4-1.58-18.89-0.17-28.26,0.88c-31.33,4.84-61.44,16.72-88.05,33.87c0.71-1.73,1.46-3.45,2.37-5.08
		c1.81,0.83,2.95-0.97,4.17-1.94c13.53-12.95,28.85-24.18,45.85-32.16C893.54,362.84,906.78,358.36,920.29,355.34z"/>
	<path fill="#DEA550" stroke="#DEA550" stroke-width="0.0938" d="M1207.1801,372.33c19.2699,3.49,38.23,9.03,56.0099,17.3
		c-1.2699,7.24-2.4399,14.73-6.4199,21.07c-4.51,7.54-12.77,13.43-21.8201,13.06c-9.13-0.16-17.3199-6.12-21.97-13.72
		C1205.49,399.1,1204.6801,385.01,1207.1801,372.33z"/>
	<path fill="#FEEFDE" stroke="#FEEFDE" stroke-width="0.0938" d="M1468.6,409.57c5.86-4.12,13.7001-6.12,20.64-3.76
		c4.98,1.6,8.79,5.98,10.13,11c1.61,5.18-0.3,10.55-1.95,15.48c-6.51,17.23-14.14,34.08-22.9701,50.25
		c0.3201-3.77,2.25-7.1,3.5-10.61c4.0601-10.84,7.9801-21.75,10.9701-32.95c1.4099-5.9,3.25-11.87,3.0499-17.99
		c-1.13-4.89-3.73-10.29-8.74-12.14C1478.4,407.27,1473.4399,409.12,1468.6,409.57z"/>
	<path fill="#FEEFDE" stroke="#FEEFDE" stroke-width="0.0938" d="M1424.51,412.71c4.8099-3.18,10.5599-5.81,16.47-4.81
		c4.8101,1.02,7.79,5.63,9.23,10.01c1.4,6.62,0.11,13.42-0.9399,20c-1.39,8.04-3.55,15.91-5.5,23.82l-0.22-0.45
		c-0.1101-0.22-0.3201-0.65-0.42-0.87c1.98-12.78,3.53-25.78,2.13-38.71c-0.47-4.37-4.1801-7.64-8.23-8.78
		C1432.98,411.47,1428.64,412.19,1424.51,412.71z"/>
	<path fill="#FCC369" stroke="#FCC369" stroke-width="0.0938" d="M1468.6,409.57c4.84-0.45,9.8-2.3,14.63-0.72
		c5.01,1.85,7.61,7.25,8.74,12.14c0.2001,6.12-1.64,12.09-3.0499,17.99c-2.99,11.2-6.91,22.11-10.9701,32.95
		c-1.25,3.51-3.1799,6.84-3.5,10.61c-0.23,1.36-1.1499,2.47-1.75,3.68c0.5601,0.2,1.6901,0.59,2.25,0.79
		c10.25-19.51,20.01-39.27,30.2101-58.8c1.64-3.17,4.47-5.43,7.0499-7.79l0.38-0.03c7.05-1.17,14.42,0.4,20.03,4.95
		c3.98,3.08,8.72,8.17,5.97,13.53c-6.4099,15.72-15.48,30.16-23.77,44.93c-2.98,5.59-6.88,10.73-8.9399,16.77
		c-0.6,1.73-2.67,2.83-2.33,4.86c1.13-0.47,2.0299-1.22,2.6899-2.27c13.47-19.44,27.15-38.74,40.72-58.12
		c0.8101-1.16,1.53-2.44,1.36-3.92l0.0901-0.02c7.13-2.2,15.63-3.26,22.0299,1.47c7.6001,5.47,7.9701,16.63,4.6901,24.63
		c-14.3199,21.24-30.49,41.24-44.16,62.91c0.36-0.22,1.0601-0.67,1.42-0.89c4.14-2.24,6.65-6.45,10.46-9.14
		c5.89-3.58,12.1801-6.96,19.15-7.69c7.29-0.82,15.05,2.33,19.25,8.44c-22.01,16.89-41.27,37.06-59.15,58.19
		c-8.66,10.89-17.5,22.23-29.7,29.36c-6.38,3.8-14.1801,5.85-21.5,3.88c-6.87-1.63-12.24-6.43-18.09-10.05
		c-2.27-1.39-4.77-3.29-4.7401-6.23c-0.0499-4.86,3.26-8.76,5.88-12.54c-7.0699,3.55-15.24,3.27-22.9199,2.9
		c-12.38-0.91-24.61-4.14-35.75-9.58c-3.5901-1.68-6.4601-4.85-7.5-8.69c-2.0701-6.91-0.54-14.23,1.1699-21.04
		c4.3501-15.77,11.99-30.35,19.17-44.96c1.66-3.43,2.58-8.04,6.74-9.27c8.84-2.84,18.22-0.3,27.03,1.44
		c26.04,6.46,50.96,16.7,75.4399,27.53c4.7201,1.84,8.78,5.22,13.8301,6.23c-10.16-4.3-18.5901-11.53-27.9601-17.19
		c-26.47-15.94-56.35-24.9-85.88-33.27c-2.3199-1.08-1.6799-4.4-2.09-6.49c-0.51-17.45-0.59-35.26,3.75-52.29
		c1.66-2.18,3.72-4,5.53-6.05c4.13-0.52,8.47-1.24,12.52,0.21c4.0499,1.14,7.76,4.41,8.23,8.78c1.4,12.93-0.15,25.93-2.13,38.71
		c0.1,0.22,0.3099,0.65,0.42,0.87c-0.0901,2.4-1.1001,4.72-1.5701,7.08c1.6901-2.08,2.26-4.75,3.3-7.16
		c5.73-14.51,11.5599-28.99,17.36-43.48c1.0499-3.23,3.7999-5.35,5.62-8.11L1468.6,409.57z"/>
	<path fill="#FEEFDE" stroke="#FEEFDE" stroke-width="0.0938" d="M1512.59,420.39c6.73-3.17,14.85-3.96,21.7101-0.71
		c5.63,2.49,9.99,8.1,10.1599,14.37c0.6901,6.22-2.76,11.73-5.59,16.97c-9.85,17.24-21.1899,33.6-32.99,49.55
		c2.0599-6.04,5.96-11.18,8.9399-16.77c8.29-14.77,17.3601-29.21,23.77-44.93c2.75-5.36-1.99-10.45-5.97-13.53
		C1527.01,420.79,1519.64,419.22,1512.59,420.39z"/>
	<path fill="#E09912" stroke="#E09912" stroke-width="0.0938" d="M1414.6899,430.01c0.3201-4.01,1.1801-8.43,4.29-11.25
		c-4.34,17.03-4.26,34.84-3.75,52.29c0.41,2.09-0.23,5.41,2.09,6.49c29.53,8.37,59.41,17.33,85.88,33.27
		c9.37,5.66,17.8,12.89,27.9601,17.19c-5.05-1.01-9.11-4.39-13.8301-6.23c-24.48-10.83-49.3999-21.07-75.4399-27.53
		c-8.8101-1.74-18.1901-4.28-27.03-1.44c-4.16,1.23-5.08,5.84-6.74,9.27c-7.1801,14.61-14.8199,29.19-19.17,44.96
		c-1.71,6.81-3.24,14.1299-1.1699,21.04c1.0399,3.84,3.9099,7.01,7.5,8.69c11.14,5.44,23.37,8.67,35.75,9.58
		c7.6799,0.37,15.85,0.65,22.9199-2.9c-2.62,3.78-5.9299,7.68-5.88,12.54c-0.0299,2.94,2.4701,4.84,4.7401,6.23
		c5.85,3.62,11.22,8.42,18.09,10.05c7.3199,1.97,15.12-0.08,21.5-3.88c12.2-7.13,21.0399-18.47,29.7-29.36
		c17.88-21.13,37.14-41.3,59.15-58.19c-4.2-6.11-11.96-9.26-19.25-8.44c-6.97,0.73-13.26,4.11-19.15,7.69
		c3.1801-4.29,7.98-7.07,12.47-9.83c5.52-3.21,12.3301-5.28,18.6001-3.04c5.4099,1.98,9.37,6.59,12.38,11.35
		c1.7899,2.29-1.02,4.6-2.39,6.31c-18.2101,18.5-38.91,34.48-56.04,54.07c-10.26,12.9-21.2,25.71-35.05,34.89
		c-6.62,4.2-14.95,7.87-22.7999,5.09c-9.22-3.27-18.1801-7.74-25.53-14.28c-3.78-3.31-6.74-7.5-8.48-12.22
		c-19.64,3.32-39.89-6.08-51.9301-21.51c-4.5199-6.68-3.7999-15.28-3.0299-22.91c2.5399-15.64,8.62-30.62,16.76-44.16
		c6.33-7.73,8.5599-17.73,11.9199-26.93c2.48-5.99,2.21-12.52,2.85-18.85C1413.23,448.7,1413.98,439.36,1414.6899,430.01z"/>
	<path fill="#FEEFDE" stroke="#FEEFDE" stroke-width="0.0938" d="M789.46,426.43c1.46-2.27,2.71-4.74,4.69-6.62
		C765.97,491.49,744.4,566.04,733.62,642.4c-10.53,73.81-10.63,149.31,2.02,222.87c13.18,77.86,40.75,153.01,79.16,221.9199
		c16.91,30.6101,36.16,59.8501,56.46,88.3101c-14.88-10.78-28.05-23.83-40.58-37.23c-25.72-28.05-46.78-60.16-63.73-94.17
		c-18.48-37.21-32.17-76.7-41.93-117.05c-12.86-53.33-18.97-108.18-19.48-163c-0.44-78.4,10.2-157.22,34.81-231.79
		C752.7,495.31,768.55,459.37,789.46,426.43z"/>
	<path fill="#FFFFFF" stroke="#FFFFFF" stroke-width="0.0938" d="M1106.58,443.55c16.03-13.11,36.49-21.22,57.3401-20.85
		c21.5499-0.23,42.6599,8.47,58.9099,22.42c10.37,8.99,19.4301,19.76,25.6901,32.02c-4.21-3.12-6.1-8.26-9.79-11.87
		c-5.58-5.72-10.95-11.77-17.53-16.38c-23.9199-17.43-55.8899-21.93-84.26-14.52c8.39,1.57,16.89,2.85,24.9801,5.71
		c19.6799,6.44,37.6899,18.1,51.23,33.83c18.84,22.14,29.6799,50.98,30.15,80.05c0.71,18.37-2.26,36.95-9.4701,53.91
		c-6.75,15.6-16.61,30.27-30.11,40.8c-5.1799,4.31-10.9399,7.8-16.77,11.13c4.6001-0.11,8.7101-2.4,12.9301-3.97
		c8.86-3.49,16.6899-9.03,24.36-14.58c6.48-5.15,12.55-10.94,17.42-17.66c1.02-1.31,2.0399-2.83,3.7799-3.2
		c-7.7899,13.31-18.7599,24.73-31.4199,33.52c-16.8301,11.55-37.65,17.45-58.04,15.51c-18.89-1.59-36.89-9.85-51.23-22.11
		c-21.84-18.56-35.6801-45.39-40.99-73.34c-1.11-6.6299-2.55-13.28-2.12-20.04c-1.66-21.12,2.21-42.52,10.0699-62.14
		C1079.33,473.28,1091,456.24,1106.58,443.55 M1141.4,511.48c-9.09,2.15-17.17,7.74-22.9401,15.02
		c-15.58,19.54-15.8099,49.69-0.6,69.5c5.71,7.47,13.75,13.33,22.9401,15.63c10.11,2.72,21.26,0.76,30.0399-4.88
		c12.55-7.99,20.37-22.11,22.3201-36.68c2.83-18.98-3.99-39.9-19.5801-51.67C1164.54,511.58,1152.46,508.68,1141.4,511.48z"/>
	<path fill="#F0F0ED" stroke="#F0F0ED" stroke-width="0.0938" d="M1136.9399,434.37c28.3701-7.41,60.3401-2.91,84.26,14.52
		c6.5801,4.61,11.9501,10.66,17.53,16.38c3.6901,3.61,5.5801,8.75,9.79,11.87c3.1699,4.2,4.9199,9.35,7.12,14.12
		c9.33,22.55,13.3099,47.44,10.42,71.73c-2.29,20.32-9.63,39.9-20.3,57.28l-0.3201,0.12c-1.74,0.37-2.7599,1.89-3.7799,3.2
		c-4.87,6.72-10.9401,12.5099-17.42,17.66c-7.67,5.55-15.5,11.09-24.36,14.58c-4.22,1.57-8.33,3.86-12.9301,3.97
		c5.8301-3.33,11.5901-6.82,16.77-11.13c13.5-10.53,23.36-25.2,30.11-40.8c7.2101-16.96,10.1801-35.54,9.4701-53.91
		c-0.4701-29.07-11.3101-57.91-30.15-80.05c-13.54-15.73-31.55-27.39-51.23-33.83C1153.83,437.22,1145.33,435.94,1136.9399,434.37z"
		/>
	<path fill="#FEEFDE" stroke="#FEEFDE" stroke-width="0.0938" d="M1548.41,441.1c8.25-9.19,25.37-8.25,32.22,2.23
		c3.37,5.33,3.85,12.06,2.5699,18.12c-0.6899,2.99-1.12,6.23-3.01,8.75c-15.96,19.65-32.1,39.16-47.7999,59.02
		c-0.36,0.22-1.0601,0.67-1.42,0.89c13.67-21.67,29.8401-41.67,44.16-62.91c3.28-8,2.91-19.16-4.6901-24.63
		C1564.04,437.84,1555.54,438.9,1548.41,441.1z"/>
	<path fill="#FFFFFF" stroke="#FFFFFF" stroke-width="0.0938" d="M947.65,438.81c19.53-2.65,39.8,1.75,56.69,11.84
		c19.91,11.79,35.1099,30.52,44.58,51.47c6.34,13.88,10.1499,28.83,11.8099,43.98c1.2001,5.91,0.26,11.9301,0.6801,17.9
		c-0.36,36.92-15.12,74.63-43.57,98.87c-19.44,16.8-46.1201,25.45-71.67,21.37c-24.14-3.52-45.8-17.79-60.82-36.7
		c-22.17-27.71-31.5099-64.5-28.19-99.58c2.82-30.8,15.64-61.16,37.9301-82.92C909.37,451.2,927.81,441.33,947.65,438.81
		 M929.89,450.35c1.97,0.69,4.02,1.2,6.09,1.53c22.5,3.66,44.1,13.78,60.81,29.34c36.66,33.97,48.5201,90.57,31.61,137.15
		c-7,19.86-19.76,37.83-36.97,50.09c-3.58,2.97-7.93,4.7599-11.59,7.6c6.3199-0.79,12.05-3.84,17.8-6.39
		c7.65-4.09,15.13-8.67,21.66-14.42c15.44-12.68,26.4-30.21,33.1-48.91c12.41-37.07,8.16-79.77-12.7101-113
		c-5.7599-9.64-13.87-17.49-22.0599-25.03C993.56,448.35,959.81,443.03,929.89,450.35 M943.6,531.69
		c-9.03,1.62-17.25,6.67-23.34,13.45c-18.68,20.87-18.26,56.1,1.22,76.32c7.82,8.17,19.03,13.29,30.45,12.66
		c11.61-0.24,22.52-6.44,29.81-15.29c11.18-13.32,14.83-31.98,11.26-48.81c-2.75-13.24-10.43-25.72-22-32.97
		C962.94,531.92,952.98,530.02,943.6,531.69z"/>
	<path fill="#F0F0ED" stroke="#F0F0ED" stroke-width="0.0938" d="M929.89,450.35c29.92-7.32,63.67-2,87.74,17.96
		c8.1899,7.54,16.3,15.39,22.0599,25.03c20.8701,33.23,25.1201,75.93,12.7101,113c-6.7001,18.7-17.66,36.23-33.1,48.91
		c-6.53,5.75-14.01,10.33-21.66,14.42c-5.75,2.55-11.48,5.6-17.8,6.39c3.66-2.84,8.0099-4.63,11.59-7.6
		c17.21-12.26,29.97-30.23,36.97-50.09c16.91-46.58,5.0499-103.18-31.61-137.15c-16.71-15.56-38.31-25.68-60.81-29.34
		C933.91,451.55,931.86,451.04,929.89,450.35z"/>
	<path fill="#562C1F" stroke="#562C1F" stroke-width="0.0938" d="M1141.4,511.48c11.0599-2.8,23.14,0.1,32.1799,6.92
		c15.5901,11.77,22.41,32.69,19.5801,51.67c-1.9501,14.57-9.77,28.69-22.3201,36.68c-8.7799,5.64-19.9299,7.6-30.0399,4.88
		c-9.1901-2.3-17.2301-8.16-22.9401-15.63c-15.21-19.81-14.98-49.96,0.6-69.5C1124.23,519.22,1132.3101,513.63,1141.4,511.48
		 M1129.5699,529.59c-18.12,14.39-19.4399,44.66-3.2999,61c-1.17,3.2-0.3301,7.44,2.96,9.0099c2.35,1.2401,5.03-0.05,6.54-1.99
		c8.66,3.59,19.0499,3.31,27.0699-1.75c13.7101-8.65,19.9501-26.26,16.98-41.87c-0.6-2.51-0.46-5.57-2.5699-7.36
		c4.6899-5.86,4.1899-15.37-1.4399-20.44c-3.91-3.83-10.92-3.52-14.6101,0.46C1151.35,520.97,1138.29,522.45,1129.5699,529.59z"/>
	<path fill="#30160D" stroke="#30160D" stroke-width="0.0938" d="M1129.5699,529.59c8.7201-7.14,21.78-8.6201,31.63-2.94
		c-6.08,6.08-5.38,17.5,1.76,22.44c4.48,3.12,11.02,1.84,14.29-2.46c2.11,1.79,1.97,4.85,2.5699,7.36
		c2.9701,15.61-3.2699,33.22-16.98,41.87c-8.02,5.06-18.4099,5.34-27.0699,1.75c1.59-3.3,1.29-8-2.24-9.9
		c-2.8401-1.36-5.9301,0.24-7.26,2.88C1110.13,574.25,1111.45,543.98,1129.5699,529.59z"/>
	<path fill="#FFFFFF" stroke="#FFFFFF" stroke-width="0.0938" d="M1161.2,526.65c3.6901-3.98,10.7001-4.29,14.6101-0.46
		c5.6299,5.07,6.1299,14.58,1.4399,20.44c-3.27,4.3-9.8101,5.58-14.29,2.46C1155.8199,544.15,1155.12,532.73,1161.2,526.65z"/>
	<path fill="#562C1F" stroke="#562C1F" stroke-width="0.0938" d="M943.6,531.69c9.38-1.67,19.34,0.23,27.4,5.36
		c11.57,7.25,19.25,19.73,22,32.97c3.57,16.83-0.08,35.49-11.26,48.81c-7.29,8.85-18.2,15.05-29.81,15.29
		c-11.42,0.63-22.63-4.49-30.45-12.66c-19.48-20.22-19.9-55.45-1.22-76.32C926.35,538.36,934.57,533.31,943.6,531.69 M928.95,550.96
		c-17.52,14.66-18.55,44.19-2.94,60.6l0.83-0.76c-1.47,2.94-1.4,6.78,1.09,9.16c2.48,2.46,7.07,1.36,8.29-1.89
		c1.22,1.25,2.8101,2.01,4.52,2.41c8.24,1.98,17.36,0.45,24.28-4.53c14.63-10.73,19.95-32.14,12.93-48.67
		c4.45-6.05,3.94-15.46-1.85-20.48c-3.97-3.71-10.72-3.29-14.5,0.47C951.24,541.73,937.8,543.26,928.95,550.96z"/>
	<path fill="#DBA04B" stroke="#DBA04B" stroke-width="0.0938" d="M802.89,538.81c8.04-5.86,19.75-5.16,27.57,0.76
		c6.57,4.49,10.04,11.89,13.25,18.9c0.5,3.86,1.43,7.65,1.83,11.53c0.82,12.36-3.27,25.36-12.6,33.83
		c-6.01,4.07-13.75,6.52-20.86,4.03c-10.05-2.99-17.01-11.92-20.45-21.47c-4.12-11.63-3.77-24.96,1.65-36.12
		C795.42,545.69,798.94,541.9,802.89,538.81z"/>
	<path fill="#30160D" stroke="#30160D" stroke-width="0.0938" d="M928.95,550.96c8.85-7.7,22.29-9.23,32.65-3.69
		c-6.23,6.21-5.54,18.24,2.11,22.99c4.63,2.94,11.03,1.33,14.24-2.98c7.02,16.53,1.7,37.9399-12.93,48.67
		c-6.92,4.98-16.04,6.51-24.28,4.53c-1.71-0.4-3.3-1.16-4.52-2.41c1.67-3.33,0.45-8.11-3.2599-9.4c-2.3-1.02-4.58,0.52-6.12,2.13
		l-0.83,0.76C910.4,595.15,911.43,565.62,928.95,550.96z"/>
	<path fill="#FFFFFF" stroke="#FFFFFF" stroke-width="0.0938" d="M961.6,547.27c3.78-3.76,10.53-4.18,14.5-0.47
		c5.79,5.02,6.3,14.43,1.85,20.48c-3.21,4.31-9.61,5.92-14.24,2.98C956.06,565.51,955.37,553.48,961.6,547.27z"/>
	<path fill="#FFFFFF" stroke="#FFFFFF" stroke-width="0.0938" d="M1126.27,590.59c1.33-2.64,4.4199-4.2401,7.26-2.88
		c3.53,1.9,3.83,6.6,2.24,9.9c-1.51,1.94-4.1901,3.23-6.54,1.99C1125.9399,598.03,1125.1,593.79,1126.27,590.59z"/>
	<path fill="#FCC369" stroke="#FCC369" stroke-width="0.0938" d="M1367.22,667.03c12.6-22.9301,25.13-45.9,37.72-68.84
		c8.15,2.98,16.79,4.54,25.4801,4.38c5.1499,8.25,13.21,14.19,21.6499,18.76c-3.38,7.16-8.12,13.67-10.8999,21.08
		c-16.51,25.76-32.7201,51.72-49.05,77.6c-1.8099,2.64-3,6.08-6.22,7.33C1380.9399,706.87,1374.65,686.74,1367.22,667.03z"/>
	<path fill="#FFFFFF" stroke="#FFFFFF" stroke-width="0.0938" d="M926.84,610.8c1.54-1.61,3.8199-3.15,6.12-2.13
		c3.71,1.29,4.93,6.07,3.2599,9.4c-1.22,3.25-5.81,4.35-8.29,1.89C925.44,617.58,925.37,613.74,926.84,610.8z"/>
	<path fill="#FEEFDE" stroke="#FEEFDE" stroke-width="0.0938" d="M1441.17,642.41c3.5399-5.5099,6.58-11.41,10.72-16.5099
		c-19.72,36.64-39.5701,73.21-59.26,109.86c-0.71-0.08-2.13-0.25-2.84-0.33c-0.39,0.39-1.17,1.17-1.5601,1.56
		c-0.88-3.2-1.63-6.42-2.33-9.65c3.22-1.25,4.41-4.69,6.22-7.33C1408.45,694.13,1424.66,668.17,1441.17,642.41z"/>
	<path fill="#F8BE65" stroke="#F8BE65" stroke-width="0.0938" d="M1051.85,666.84c5.34-4.69,13.13-2.96,19.24-0.98
		c16.98,6.41,29.8101,21.43,48.05,24.91c11.5599,1.61,23.3199,3.19,34.98,1.6c15.88-1.14,32.05-3.2,46.8-9.54
		c9.3099-3.88,18.5499-8.2,28.4399-10.43c6.02-0.86,13.1901-1.46,17.87,3.27c7.4501,7.24,8.04,18.59,7.84,28.35
		c0.3501,5.43-1.23,10.65-2.33,15.9c-6.52,6.14-9.8099,14.57-12.66,22.85c-10.12,12.1-22.47,22.19-35.9199,30.39
		c-16.02,10.17-33.3301,18.15-51,24.9901c-9.8301,3.74-19.64,7.59-29.8101,10.3199c-21.01,6.59-42.5499,11.57-64.36,14.59
		c-10.62,1.67-21.37,0.67-32.05,1.01c-22.9099-1.31-45.4399-6.92-66.8199-15.14c-25.59-10.05-52.19-18.48-75.33-33.71
		c-7.23-5.28-14.93-10.41-19.91-18.03c-2.17-2.86-3.64-6.49-2.8-10.11c1.49-3.06,4.5-5.12,7.56-6.42c8.4-3.31,17.54-3.49,26.4-4.5
		c4.5-0.3799,9.05,0.14,13.53-0.65c4.65-0.76,9.39-0.32,14.05-0.94c14.6-1.77,29.15-4.05,43.46-7.48
		c20.98-5.06,42.01-12.3701,59.14-25.89c4.8301-3.45,9.12-7.61,12.36-12.6C1043.52,681.67,1045.9,673.08,1051.85,666.84z"/>
	<path fill="#FDE3BD" stroke="#FDE3BD" stroke-width="0.0938" d="M361,667.78c5.27-0.63,11.09-1.2401,15.96,1.37
		c25.63,13,51.42,25.68,77.17,38.44c0.21,0.17,0.64,0.52,0.85,0.7c-1.28,2.67-2.77,5.25-4.01,7.95
		c-24.78-12.19-49.29-24.89-74.03-37.16c-3.73-1.74-7.5-4.74-11.88-3.58c-9.83,2.27-17.81,10.5-20.54,20.13
		c-1.2,3.98-0.32,8.21-1.16,12.25c-5.23-7.16-6.38-17.05-2.78-25.17C344.03,674.46,352.3,669,361,667.78z"/>
	<path fill="#FCC369" stroke="#FCC369" stroke-width="0.0938" d="M344.52,695.63c2.73-9.63,10.71-17.86,20.54-20.13
		c4.38-1.16,8.15,1.84,11.88,3.58c24.74,12.27,49.25,24.97,74.03,37.16c-4.71,10.86-10.2,21.38-14.68,32.34
		c-5.84-0.75-11.73-1.9-17.64-1.26c5.25,1.83,10.59,3.42,15.98,4.79c-4.15,7.89-7.56,16.14-11.45,24.15
		c-0.83,1.83-1.87,3.63-2.12,5.65c2.85,5.26,9.04,8.28,14.94,8.11c7.74-0.03,14.89-3.64,21.26-7.73c4.06-2.77,8.17-5.58,11.57-9.16
		c1.9,1.48,3.71,3.33,4.07,5.84c1.18,6.15-2.41,11.7-3.93,17.44c-5.43,2.05-11.37,1.41-16.93,0.35c-12.75-2.48-25.15-6.6-37.99-8.62
		c0.92,0.49,1.85,0.98,2.78,1.49c1.74,1.15,3.52,2.26,5.49,3.03c10.72,4.27,21.36,8.75,32.08,13.02c3.37,1.1,5.03,4.53,6.22,7.6
		c1.94,5.43,0.25,11.3-2,16.36c-0.92,2.25-2.45,4.44-2.06,6.99c-14.83-3.09-29.76-5.64-44.58-8.72c-2.35-0.53-4.76-0.65-7.15-0.65
		c2.72,0.5,5.5,0.91,8.03,2.09c1.26,0.96,2.51,2.01,4.03,2.59c10.95,4.33,21.82,8.9,32.74,13.33c1.19,5.77,2.32,11.97,0.21,17.66
		c-1.28,3.74-4.41,6.32-7.06,9.09l1.32,0.26c-1.68,0.68-3.51,0.7-5.29,0.81c-16.98-3.3701-32.27-12-46.67-21.26
		c-2.75-1.56-3.62-4.86-4.05-7.76c-0.82-7.59,2.59-15.23,8.19-20.28c-2.51-5.58-3.57-11.82-2.27-17.85
		c1.72-8.48,6.45-15.93,11.29-22.95c-5.24-12.44-1.83-27.14,7.02-37.01c6.93-0.55,14.01,1.25,21.03,1.2
		c-0.83-0.76-1.77-1.33-2.81-1.71c-26.05-10.27-52.01-20.75-78.06-31c-3.54-1.39-6.45-3.95-9.12-6.59
		C344.2,703.84,343.32,699.61,344.52,695.63z"/>
	<path fill="#FCC369" stroke="#FCC369" stroke-width="0.0938" d="M475.5,685.49c2.36-2.82,6.56-3.61,9.72-1.67
		c24.43,12.29,48.11,26.3,69.6,43.27l0.17,0.34c1.64,3.92,5.1,6.62,7.22,10.26c7.39,11.38,9.68,26.04,5.36,38.98
		c-2.74,8.18-7.19,16.26-14.15,21.57c-1.04-2.75-2.15-5.47-3.47-8.09c-2.49,7.88-4.5,15.95-6.01,24.0699
		c2.15-2.14,4.32-4.2599,6.6-6.27c2.35,14.51,3.37,29.88-1.7,43.95c-2.9901,8.15-8.57,15.39-15.96,20.0099
		c-4.25,2.9-9.3,4.17-13.79,6.61c-19.9-0.78-39.7-5.96-57.57-14.79c2.48-6.37,1.36-13.3-0.58-19.64c9.5-7.11,14.2-19.41,13.62-31.05
		c-0.1-4.09-1.75-7.87-3.53-11.47c6.9-2.5,10.47-9.59,12.38-16.2c2.22-7.47,2.19-16.46-3.53-22.4
		c4.7-5.3199,9.64-10.4399,14.04-16.0099c1.8-1.91,1.34-4.65,1.37-7.02c0.17,1.49,0.4,2.97,0.64,4.48
		c4.53-2.25,8.99-4.65,13.33-7.23c2.04-0.86,0.1-2.88-0.37-4.12c-3.71-6.24-7.05-12.7-10.84-18.89
		c-10.17,13.74-19.76,27.99-31.25,40.69c-7.25,8.14-15.26,15.86-24.78,21.29c-4.28,2.57-9.24,3.52-13.75,5.57
		c-0.34,0-1.03,0.01-1.37,0.01c12.14-25.43,24.83-50.6,37.06-75.98C467.58,698.89,470.26,691.34,475.5,685.49z"/>
	<path fill="#E09912" stroke="#E09912" stroke-width="0.0938" d="M454.13,707.59c2.62-2.69,6.47-1.76,9.83-1.83
		c-12.23,25.38-24.92,50.55-37.06,75.98c0.34,0,1.03-0.01,1.37-0.01c10.27,1.97,20.79-1.39,29.2-7.28
		c15.67-10.71,26.84-26.47,37.43-41.92c0.11,2.46,0.23,4.93,0.39,7.41c-0.03,2.37,0.43,5.11-1.37,7.02
		c-4.4,5.57-9.34,10.69-14.04,16.0099c5.72,5.94,5.75,14.9301,3.53,22.4c-1.91,6.61-5.48,13.7-12.38,16.2
		c1.78,3.6,3.43,7.38,3.53,11.47c0.58,11.64-4.12,23.94-13.62,31.05c1.94,6.34,3.06,13.27,0.58,19.64c-1.5,3.84-4.79,6.71-8.44,8.45
		c-5.97,2.94-12.89,3.69-19.42,2.62c1.68-0.68,3.37-1.36,5.15-1.71c1.78-0.11,3.61-0.13,5.29-0.81c4.46-1.89,8.83-4.82,10.97-9.33
		c2.98-6.23,2.18-13.67-0.24-19.94c-13.82-5-28.05-8.91-41.97-13.66c-2.53-1.18-5.31-1.59-8.03-2.09c2.39,0,4.8,0.12,7.15,0.65
		c14.82,3.08,29.75,5.63,44.58,8.72c4.93-4.09,7.31-10.37,8.26-16.55c0.83-4.8,0.61-9.99-1.66-14.37c-0.52-1.26-1.9-1.56-3.01-1.98
		c-14.48-4.6-28.86-9.48-43.32-14.1c-0.93-0.51-1.86-1-2.78-1.49c12.84,2.02,25.24,6.14,37.99,8.62c5.56,1.06,11.5,1.7,16.93-0.35
		c3.17-3.0699,4.88-7.29,6.13-11.44c1.59-5.53,1.91-11.74-0.92-16.93c-1.88,1.6-3.67,3.29-5.35,5.09c-3.4,3.58-7.51,6.39-11.57,9.16
		c-6.37,4.09-13.52,7.7-21.26,7.73c-5.9,0.17-12.09-2.85-14.94-8.11c0.25-2.02,1.29-3.8199,2.12-5.65
		c3.89-8.01,7.3-16.26,11.45-24.15c0.58-1.17,1.13-2.35,1.66-3.53c4.48-10.96,9.97-21.48,14.68-32.34c1.24-2.7,2.73-5.28,4.01-7.95
		C454.77,708.11,454.34,707.76,454.13,707.59z"/>
	<path fill="#FDE3BD" stroke="#FDE3BD" stroke-width="0.0938" d="M466.8,754.87c11.49-12.7,21.08-26.95,31.25-40.69
		c3.79,6.19,7.13,12.65,10.84,18.89c0.47,1.24,2.41,3.26,0.37,4.12c-4.34,2.58-8.8,4.98-13.33,7.23c-0.24-1.51-0.47-2.99-0.64-4.48
		c-0.16-2.48-0.28-4.95-0.39-7.41c-10.59,15.45-21.76,31.21-37.43,41.92c-8.41,5.89-18.93,9.25-29.2,7.28
		c4.51-2.05,9.47-3,13.75-5.57C451.54,770.73,459.55,763.01,466.8,754.87z"/>
	<path fill="#DEA550" stroke="#DEA550" stroke-width="0.0938" d="M1252.74,719.92c3.39-2.09,7.14-4.03,11.24-3.95
		c6.47,0,12.36,3.78,16.6801,8.36c6.5299,7.5,10.45,16.97,12.62,26.6c2.24,8.33,1.83,16.99,1.97,25.53
		c-12.35,11.86-26.34,21.93-41.0699,30.62c-15.26-17.27-18.4401-42.34-14.1001-64.31
		C1242.9301,734.49,1246.22,726.06,1252.74,719.92z"/>
	<path fill="#FDE3BD" stroke="#FDE3BD" stroke-width="0.0938" d="M554.99,727.43c8.17,5.25,15,12.71,19.05,21.58
		c1.4901,3.07,2.18,6.5,2.2,9.92c-0.48,12.45-4.27,24.77-11.03,35.25c-2.84,4.38-6.44,8.33-10.92,11.08
		c5.67,13.47,5.95,28.84,2.19,42.86c-2.82,9.67-7.95,19.1-16.21,25.16c-6.05,4.4399-13.8,5.96-21.18,5.24
		c4.49-2.44,9.54-3.71,13.79-6.61c7.39-4.62,12.97-11.86,15.96-20.0099c5.0699-14.07,4.05-29.44,1.7-43.95
		c-2.28,2.01-4.45,4.13-6.6,6.27c1.51-8.12,3.52-16.1899,6.01-24.0699c1.32,2.62,2.43,5.34,3.47,8.09
		c6.96-5.31,11.41-13.39,14.15-21.57c4.32-12.94,2.03-27.6-5.36-38.98C560.09,734.05,556.63,731.35,554.99,727.43z"/>
	<path fill="#9E4F19" stroke="#9E4F19" stroke-width="0.0938" d="M1326.15,733.14c1.12-3.11,4.47-5.21,7.78-4.63
		c4.46,0.36,7.5499,5.31,5.97,9.5c-7.75,27.31-17.9401,53.95-30.55,79.39c-27.74,55.98-68.1,106.53-119.95,141.91
		c-33.9501,23.19-72.7001,39.89-113.48,46.12c-41.3,6.52-84.6901,1.87-122.8801-15.55c-27.59-12.43-52.11-31.33-71.71-54.34
		c-23.45-27.52-40.03-60.48-50.4-95.0099c-6.48-21.03-10.83-42.7-13.4-64.54c-0.8101-3.81,1.71-7.98,5.65-8.59
		c3.59-0.9,7.28,1.55,8.43,4.96c3.6,8.86,8.29,17.32,14.28,24.81c16.87,22.1,41.55,36.83,67.16,46.75
		c40.38,15.3,84.03,19.95,126.97,19.29c41.7999-0.85,83.47-7.15,123.71-18.46c31.46-8.97,62.21-21.02,90.4501-37.67
		c14.73-8.69,28.72-18.76,41.0699-30.62C1308.09,764.11,1319.15,749.62,1326.15,733.14 M1328.17,746.23
		c-8.4601,15.68-20.3101,29.31-33.4501,41.25c-11.35,9.46-23.22,18.35-36.01,25.79l0.01,0.2c-9.97,5.55-19.97,11.09-30.4099,15.75
		l0.0399,0.2c-9.7,4.15-19.36,8.44-29.33,11.92V841.6c-9.3,3.07-18.59,6.21-27.9301,9.13c-22.34,6.31-45.0299,11.42-68.02,14.71
		c-22.21,3.38-44.6399,4.9-67.09,5.46c-9.6699,0-19.34-0.12-28.98-0.87c-17.15-0.73-34.23-2.91-51.09-6.1201
		c-10.22-1.98-20.29-4.62-30.3-7.46l0.04-0.24c-31.07-9.35-61.34-25.16-82.54-50.28c-5.25-6.55-10.2-13.42-13.93-20.98
		c-0.9-1.92-1.87-3.83-3.26-5.44c-0.29,3.89,0.6,7.73,1.24,11.55c1.9901,12.45,4.58,24.8,7.89,36.97
		c9.96,36.29,25.92,71.6,50.48,100.4l-0.05,0.36c7.44,8.7,15.25,17.22,24.26,24.33c1.79,1.89,3.7,3.73,6.03,4.98
		c4.71,4.48,10.38,7.77,15.64,11.55l0.27-0.13c37.63,24.85,84.09,34.4,128.71,30.39c4.36-0.74,8.88-0.67,13.13-2.04
		c0.41,0.06,1.23,0.16,1.64,0.21c2.83-0.63,5.6899-1.1,8.5599-1.52c21.3201-4.39,42.16-11.21,61.79-20.65
		c1.59-0.77,3.17-1.55,4.77-2.3199c2.89-1.4301,5.74-2.92,8.53-4.54c11.36-5.99,22.0099-13.16,32.6399-20.32l-0.0399-0.32
		c6.0299-3.84,11.38-8.61,17.02-12.96c5.12-4.46,10.5599-8.57,15.21-13.53l-0.0601-0.39c3.3201-2.27,5.8301-5.47,8.75-8.2
		c5.24-5.33,10.6801-10.51,15.3501-16.36l-0.0701-0.36c12.72-13.81,23.61-29.25,33.91-44.93c0.7-1.33,1.86-2.58,2.01-4.11
		c4.0599-5.17,6.7999-11.21,10.21-16.79c11.3-20.3101,20.85-41.57,28.78-63.41c2.71-7.83,5.91-15.58,7.54-23.71
		C1329.35,744.46,1328.72,745.32,1328.17,746.23z"/>
	<path fill="#DBA04B" stroke="#DBA04B" stroke-width="0.0938" d="M798.26,749.28c4.97-5.04,12.88-6.59,19.47-4.07
		c6.61,2.93,11.92,8.17,16.02,14.03c7.43,11.17,12.02,24.45,12.14,37.93c-5.99-7.49-10.68-15.95-14.28-24.81
		c-1.15-3.41-4.84-5.86-8.43-4.96c-3.94,0.61-6.46,4.78-5.65,8.59c2.5699,21.84,6.92,43.51,13.4,64.54
		c-3.44-0.32-6.87,0.3-10.3,0.03c-11.02-1.81-18.48-11.4-23.58-20.59c-7.66-15-10.93-32.37-8.38-49.08
		C789.93,763.04,792.77,755.18,798.26,749.28z"/>
	<path fill="#FDE3BD" stroke="#FDE3BD" stroke-width="0.0938" d="M418.65,747.32c5.91-0.64,11.8,0.51,17.64,1.26
		c-0.53,1.18-1.08,2.36-1.66,3.53C429.24,750.74,423.9,749.15,418.65,747.32z"/>
	<path fill="#FDE3BD" stroke="#FDE3BD" stroke-width="0.0938" d="M468.83,773.13c1.68-1.8,3.47-3.49,5.35-5.09
		c2.83,5.19,2.51,11.4,0.92,16.93c-1.25,4.15-2.96,8.3701-6.13,11.44c1.52-5.74,5.11-11.29,3.93-17.44
		C472.54,776.46,470.73,774.61,468.83,773.13z"/>
	<path fill="#FDE3BD" stroke="#FDE3BD" stroke-width="0.0938" d="M416.83,789.63c14.46,4.62,28.84,9.5,43.32,14.1
		c1.11,0.42,2.49,0.72,3.01,1.98c2.27,4.38,2.49,9.57,1.66,14.37c-0.95,6.18-3.33,12.46-8.26,16.55c-0.39-2.55,1.14-4.74,2.06-6.99
		c2.25-5.06,3.94-10.93,2-16.36c-1.19-3.07-2.85-6.5-6.22-7.6c-10.72-4.27-21.36-8.75-32.08-13.02
		C420.35,791.89,418.57,790.78,416.83,789.63z"/>
	<path fill="#FCC369" stroke="#FCC369" stroke-width="0.0938" d="M577.04,791.96c0.48,0.04,1.45,0.12,1.94,0.16l-0.2,0.43
		c-0.11,0.22-0.3101,0.66-0.42,0.89c36.7,14.38,73.5,28.59,110.09,43.21c4.86,13.96,7.39,28.74,12.65,42.59
		c0.84,2.58,0.87,5.34,1.21,8.02c-45.29-14.31-90.38-29.28-135.68-43.53c2.11-11.53,2.28-23.55-1.01-34.88
		C570.35,803.96,574.77,798.45,577.04,791.96z"/>
	<path fill="#FEEFDE" stroke="#FEEFDE" stroke-width="0.0938" d="M578.36,793.44c0.11-0.23,0.31-0.67,0.42-0.89
		c39.36,12.67,78.79,25.18,118.18,37.78c0.46,16.36,1.85,32.7,4.14,48.91c-5.2599-13.85-7.79-28.63-12.65-42.59
		C651.86,822.03,615.06,807.82,578.36,793.44z"/>
	<path fill="#FDE3BD" stroke="#FDE3BD" stroke-width="0.0938" d="M412.86,829.35c13.92,4.75,28.15,8.66,41.97,13.66
		c2.42,6.27,3.22,13.71,0.24,19.94c-2.14,4.51-6.51,7.44-10.97,9.33l-1.32-0.26c2.65-2.77,5.78-5.35,7.06-9.09
		c2.11-5.69,0.98-11.89-0.21-17.66c-10.92-4.43-21.79-9-32.74-13.33C415.37,831.36,414.12,830.31,412.86,829.35z"/>
	<linearGradient id="SVGID_1_" gradientUnits="userSpaceOnUse" x1="842.6272" y1="849.3695" x2="1295.9296" y2="849.3695">
		<stop  offset="0" style="stop-color:#D8D8DA"/>
		<stop  offset="0.1548" style="stop-color:#DDDDDE"/>
		<stop  offset="0.3276" style="stop-color:#EAEAEB"/>
		<stop  offset="0.5" style="stop-color:#FFFFFF"/>
		<stop  offset="0.6455" style="stop-color:#EFEFEF"/>
		<stop  offset="0.8473" style="stop-color:#DEDEE0"/>
		<stop  offset="1" style="stop-color:#D8D8DA"/>
	</linearGradient>
	<path fill="url(#SVGID_1_)" d="M1294.72,787.48c-11.35,9.46-23.22,18.35-36.01,25.79l0.01,0.2
		c-9.97,5.55-19.97,11.09-30.4099,15.75l0.0399,0.2c-9.7,4.15-19.36,8.44-29.33,11.92V841.6c-9.3,3.07-18.59,6.21-27.9301,9.13
		c-22.34,6.31-45.0299,11.42-68.02,14.71c-22.21,3.38-44.6399,4.9-67.09,5.46c-9.6699,0-19.34-0.12-28.98-0.87
		c-17.15-0.73-34.23-2.91-51.0901-6.1201c-10.22-1.98-20.2899-4.62-30.2999-7.46l0.04-0.24c-31.0699-9.35-61.34-25.16-82.54-50.28
		c-1.4401,8.31,0.39,16.95,4.84,24.08c4.4301,7.99,11.72,13.7,18.47,19.63c6.3501,5.28,13.03,10.15,19.9601,14.65
		c12.1901,7.8,25.02,14.59,38.36,20.22c9.66,4.12,19.54,7.76,29.5801,10.87c0.4199,0.13,1.27,0.38,1.6899,0.51
		c16.6599,5.04,33.6699,8.89,50.8999,11.41c8.3101,1.18,16.6602,2.23,25.05,2.81c1.66,0.11,3.3201,0.23,5,0.36
		c22.13,1.46,44.4,0.9,66.4301-1.73c3.23-0.4,6.47-0.81,9.7-1.3c19.73-2.98,39.2001-7.67,58.04-14.25
		c6.61-2.29,13.11-4.88,19.54-7.65c2.87-1.25,5.72-2.57,8.5599-3.9c7.88-3.68,15.53-7.85,22.99-12.31
		c2.28-1.39,4.5601-2.78,6.8201-4.22c6.0699-3.92,11.98-8.09,17.7-12.5c4.24-3.33,8.4301-6.73,12.45-10.31
		c8.38-7.36,16.16-15.38,23.4601-23.8c4.65-6.14,11.1-11.57,12.5499-19.51C1296.33,795.2,1296.13,791.16,1294.72,787.48z"/>
	<linearGradient id="SVGID_2_" gradientUnits="userSpaceOnUse" x1="825.8635" y1="856.355" x2="1330.0601" y2="856.355">
		<stop  offset="0" style="stop-color:#673B16"/>
		<stop  offset="0.2164" style="stop-color:#6C3A17"/>
		<stop  offset="0.4584" style="stop-color:#79371B"/>
		<stop  offset="0.7128" style="stop-color:#8F3221"/>
		<stop  offset="0.9742" style="stop-color:#AE2B2A"/>
		<stop  offset="1" style="stop-color:#B22A2B"/>
	</linearGradient>
	<path fill="url(#SVGID_2_)" stroke="#8F3822" stroke-width="0.0938" d="M1328.17,746.23c-8.4601,15.68-20.3101,29.31-33.4501,41.25
		c1.41,3.68,1.61,7.72,0.48,11.51c-1.45,7.94-7.8999,13.37-12.5499,19.51c-7.3,8.42-15.0801,16.44-23.4601,23.8
		c-4.0199,3.58-8.21,6.98-12.45,10.31c-5.72,4.41-11.63,8.58-17.7,12.5c-2.26,1.44-4.54,2.83-6.8201,4.22
		c-7.46,4.46-15.11,8.63-22.99,12.31c-2.84,1.33-5.6899,2.65-8.5599,3.9c-6.4301,2.77-12.9301,5.36-19.54,7.65
		c-18.84,6.58-38.3101,11.27-58.04,14.25c-3.23,0.49-6.47,0.9-9.7,1.3c-22.03,2.63-44.3,3.19-66.4301,1.73
		c-1.6799-0.1299-3.34-0.25-5-0.36c-8.3899-0.58-16.74-1.63-25.05-2.81c-17.23-2.52-34.24-6.37-50.8999-11.41
		c-0.4199-0.13-1.27-0.38-1.6899-0.51c-10.04-3.11-19.92-6.75-29.5801-10.87c-13.34-5.63-26.1699-12.42-38.36-20.22
		c-6.9301-4.5-13.61-9.37-19.9601-14.65c-6.75-5.93-14.0399-11.64-18.47-19.63c-4.45-7.13-6.28-15.77-4.84-24.08
		c-5.25-6.55-10.2001-13.42-13.9301-20.98c-0.8999-1.92-1.8699-3.83-3.26-5.44c-0.2899,3.89,0.6001,7.73,1.24,11.55
		c1.9901,12.45,4.5801,24.8,7.8901,36.97c9.96,36.29,25.9199,71.6,50.48,100.4l-0.05,0.36c7.4399,8.7,15.25,17.22,24.26,24.33
		c13.89-6.56,28.86-11.29,44.27-12.27c9.71-0.43,19.5-0.09,29.04,1.94c16.21,3.1,31.22,10.21,45.84,17.62
		c-0.73-3.3799-2.09-6.89-1-10.33c1.2-4.39,5.14-7.3,8.99-9.31c5.71-2.47,11.86-3.83,18.05-4.4
		c18.9399-1.55,38.0499,1.37,56.11,7.08c17.26,5.54,34.0399,13.59,47.77,25.6c11.36-5.99,22.0099-13.16,32.6399-20.32l-0.0399-0.32
		c6.0299-3.84,11.38-8.61,17.02-12.96c5.12-4.46,10.5599-8.57,15.21-13.53l-0.0601-0.39c3.3201-2.27,5.8301-5.47,8.75-8.2
		c5.24-5.33,10.6801-10.51,15.3501-16.36l-0.0701-0.36c12.72-13.81,23.61-29.25,33.91-44.93c0.7-1.33,1.86-2.58,2.01-4.11
		c4.0599-5.17,6.7999-11.21,10.21-16.79c11.3-20.3101,20.85-41.57,28.78-63.41c2.71-7.83,5.91-15.58,7.54-23.71
		C1329.35,744.46,1328.72,745.32,1328.17,746.23z"/>
	<path fill="#DEA550" stroke="#DEA550" stroke-width="0.0938" d="M1252.38,914.47c7.1-1.36,14.49,1.59,19.46,6.67
		c4.5901,4.26,8.63,9.15,11.2101,14.9c6.96,13.46,9.84,28.96,8.59,44.04c-1.01,8.94-3.52,18.09-9.52,25.03
		c-5.83,6.46-16.14,7.85-23.47,3.16c-8.03-4.52-13.4301-12.42-17.36-20.53c-4.39-8.4-6.6001-17.76-7.77-27.1
		c-1.0601-12.86-0.24-26.83,7.35-37.76C1243.78,919.09,1247.47,915.32,1252.38,914.47z"/>
	<path fill="#D25A47" stroke="#D25A47" stroke-width="0.0938" d="M1036.88,940.77c5.71-2.47,11.86-3.83,18.05-4.4
		c18.9399-1.55,38.0499,1.37,56.11,7.08c17.26,5.54,34.0399,13.59,47.77,25.6c-2.79,1.62-5.64,3.11-8.53,4.54
		c-5.7101-4.22-12.22-7.17-18.65-10.1201c-14.04-6.24-28.59-11.46-43.64-14.64c-8.8199-1.76-17.84-3.46-26.85-2.54
		c-3.97,0.53-8.63,1.32-10.91,5.01c-2.58,4.23-1.0499,9.48,0.78,13.69c5.66,12.57,14.9,23.05,24.15,33.09
		c-0.41-0.05-1.23-0.15-1.64-0.21c-28.8-21.49-61.53-39.47-97.49-44.81c-20.16-2.96-40.85-1.04-60.26,5.04
		c-2.33-1.25-4.24-3.09-6.03-4.98c13.89-6.56,28.86-11.29,44.27-12.27c9.71-0.43,19.5-0.09,29.04,1.94
		c16.21,3.1,31.22,10.21,45.84,17.62c-0.73-3.3799-2.09-6.89-1-10.33C1029.09,945.69,1033.03,942.78,1036.88,940.77z"/>
	<path fill="#ED6D61" stroke="#ED6D61" stroke-width="0.0938" d="M1050.23,951.3c2.28-3.69,6.9401-4.48,10.91-5.01
		c9.01-0.92,18.03,0.78,26.85,2.54c15.05,3.18,29.6,8.4,43.64,14.64c6.4301,2.95,12.9399,5.9,18.65,10.1201
		c-1.6,0.77-3.1801,1.55-4.77,2.3199c-6.45-6.03-14.61-9.7-22.88-12.49c-11.67-4.42-23.49-8.52-35.72-11.08
		c-5.48-1.03-11.37-2.36-16.77-0.27c-3.99,1.33-6.97,4.92-7.87,8.99c-1,4.68,1.09,9.3,3.41,13.26c4.0699,6.47,9.12,12.22,13.74,18.3
		c1.1599,1.57,2.7,2.8,4.2999,3.94c-2.87,0.42-5.73,0.89-8.5599,1.52c-9.25-10.04-18.49-20.52-24.15-33.09
		C1049.1801,960.78,1047.65,955.53,1050.23,951.3z"/>
	<path fill="#F18676" stroke="#F18676" stroke-width="0.0938" d="M1070.14,952.07c5.4-2.09,11.29-0.76,16.77,0.27
		c12.23,2.56,24.0499,6.66,35.72,11.08c8.27,2.79,16.4301,6.46,22.88,12.49c-19.63,9.44-40.47,16.26-61.79,20.65
		c-1.6-1.14-3.14-2.37-4.2999-3.94c-4.62-6.08-9.67-11.83-13.74-18.3c-2.3201-3.96-4.41-8.58-3.41-13.26
		C1063.17,956.99,1066.15,953.4,1070.14,952.07z"/>
	<path fill="#ED6D61" stroke="#ED6D61" stroke-width="0.0938" d="M915.77,958.1c19.41-6.08,40.1-8,60.26-5.04
		c35.96,5.34,68.6899,23.32,97.49,44.81c-4.25,1.37-8.77,1.3-13.13,2.04c0.03-0.42,0.09-1.25,0.12-1.66
		c-7.65-4.51-14.92-9.61-22.63-14.01c-15.22-8.8-31.93-14.72-48.84-19.3c-18.87-5.2-39.68-4.12-57.36,4.58l-0.27,0.13
		C926.15,965.87,920.48,962.58,915.77,958.1z"/>
	<path fill="#F18676" stroke="#F18676" stroke-width="0.0938" d="M931.68,969.52c17.68-8.7,38.49-9.78,57.36-4.58
		c16.91,4.58,33.62,10.5,48.84,19.3c7.71,4.4,14.98,9.5,22.63,14.01c-0.03,0.41-0.09,1.24-0.12,1.66
		C1015.77,1003.92,969.31,994.37,931.68,969.52z"/>
	<path fill="#DEA550" stroke="#DEA550" stroke-width="0.0938" d="M1090.35,1011.47c6.25-1.3799,12.9-0.36,18.5801,2.57
		c10.24,5.56,17.1899,15.43,22.2899,25.65c11.6,25.54,13.9401,55.4301,5.65,82.3c-3.08,8.96-7.42,17.85-14.5599,24.3
		c-6.52,6.3999-16.4601,9.4299-25.3301,6.76c-9.41-2.76-16.64-10.12-22.15-17.9401c-10.34-15.34-14.96-33.92-16.13-52.21
		c-1-9.76,0.2201-19.61,1.87-29.23c2.4301-11.4301,6.5-22.9301,14.2001-31.92C1078.9,1017.04,1084.2,1013.03,1090.35,1011.47z"/>
	<path fill="#DBA04B" stroke="#DBA04B" stroke-width="0.0938" d="M835.95,1039.99c5.47-7.6799,15.64-12.46,24.97-9.8
		c5.68,1.2001,10.09,5.2001,14.25,8.9901c3.23,4.49,5.81,9.37,8.07,14.4099c3.46,14.0901,2.48,30.78-7.82,41.89
		c-4.73,5.61-12.13,8.78-19.46,8.28c-8.46-0.92-15.59-6.62-20.37-13.38C825.83,1075.47,825.44,1054.63,835.95,1039.99z"/>
	<path fill="#EAAD52" stroke="#EAAD52" stroke-width="0.0938" d="M928.3,1165.3199c8.98-3.99,18.89-5.86,28.71-5.35
		c16.49-0.9399,32.43,4.24,48.04,8.85c9.74,3.5901,19.81,6.13,29.6,9.5901c11.3199,3.62,22.9199,6.2899,34.6699,8.1599
		c21.3,4.4701,42.9601,7.0801,64.67,8.4801c26.61,0.5499,54.35-2.5701,77.77-16.15c-5.55,17.03-21.46,28.13-37.38,34.61
		c-20.64,8.17-42.72,11.4399-64.4401,15.39c-13.8799,2.75-27.7799,5.48-41.7999,7.45c-10.36,1.0601-20.67,3.15-31.12,2.63
		c-2.05-0.21-3.9,0.66-5.5701,1.71c-28.9199-3.4299-57.58-10.23-84.46-21.5399c0.47-0.1,1.4-0.3101,1.87-0.41
		c-8.5-6.22-16.15-13.59-22.85-21.71c-4.36-5.66-7.79-12.75-6.94-20.05C919.52,1171.66,923.96,1167.8,928.3,1165.3199z"/>
	<path opacity="0.88" fill="#934F1C" stroke="#934F1C" stroke-width="0.0938" enable-background="new    " d="M1062.72,1243.0699
		c7.85-0.11,15.7101-0.12,23.5701,0c-4.25,1.4601-8.8401,0.4501-13.23,0.7201C1069.63,1243.51,1065.92,1244.58,1062.72,1243.0699z"
		/>
</g>
</svg>
