  0
SECTION
  2
HEADER
  9
$ACADVER
  1
AC1009
  9
$FILLMODE
 70
0
  9
$EXTMIN
 10
-3.7763
 20
-7.5345
 30
0.0000
  9
$EXTMAX
 10
92.0345
 20
97.4512
 30
0.0000
  0
ENDSEC
  0
SECTION
  2
TABLES
  0
TABLE
  2
LTYPE
 70
1
  0
LTYPE
  2
CONTINUOUS
 70
64
  3
Solid line
 72
65
 73
0
 40
0
  0
ENDTAB
  0
TABLE
  2
LAYER
 70
255
  0
LAYER
  2
19
 70
64
 62
53
  6
CONTINUOUS
  0
LAYER
  2
20
 70
64
 62
30
  6
CONTINUOUS
  0
LAYER
  2
49
 70
64
 62
253
  6
CONTINUOUS
  0
LAYER
  2
51
 70
64
 62
253
  6
CONTINUOUS
  0
LAYER
  2
52
 70
64
 62
253
  6
CONTINUOUS
  0
LAYER
  2
105
 70
64
 62
5
  6
CONTINUOUS
  0
LAYER
  2
200
 70
64
 62
175
  6
CONTINUOUS
  0
ENDTAB
  0
ENDSEC
  0
SECTION
  2
BLOCKS
  0
BLOCK
  8
0
  2
RECT
 70
64
 10
0.0000
 20
0.0000
 30
0.0000
  3
RECT
  0
SOLID
  8
0
 10
-0.5000
 20
-0.5000
 30
0.0000
 11
0.5000
 21
-0.5000
 31
0.0000
 12
-0.5000
 22
0.5000
 32
0.0000
 13
0.5000
 23
0.5000
 33
0.0000
  0
ENDBLK
  8
0
  0
BLOCK
  8
0
  2
PIE
 70
64
 10
0.0000
 20
0.0000
 30
0.0000
  3
PIE
  0
CIRCLE
  8
0
 10
0.0000
 20
0.0000
 30
0.0000
 40
0.5000
  0
ENDBLK
  8
0
  0
BLOCK
  8
0
  2
OCTAGONP
 70
64
 10
0.0000
 20
0.0000
 30
0.0000
  3
OCTAGONP
  0
POLYLINE
  8
0
 66
1
 10
0.0000
 20
0.0000
 30
0.0000
 40
0.0000
 41
0.0000
 70
1
  0
VERTEX
  8
0
 10
-0.5000
 20
-0.2071
 30
0.0000
  0
VERTEX
  8
0
 10
-0.5000
 20
0.2071
 30
0.0000
  0
VERTEX
  8
0
 10
-0.2071
 20
0.5000
 30
0.0000
  0
VERTEX
  8
0
 10
0.2071
 20
0.5000
 30
0.0000
  0
VERTEX
  8
0
 10
0.5000
 20
0.2071
 30
0.0000
  0
VERTEX
  8
0
 10
0.5000
 20
-0.2071
 30
0.0000
  0
VERTEX
  8
0
 10
0.2071
 20
-0.5000
 30
0.0000
  0
VERTEX
  8
0
 10
-0.2071
 20
-0.5000
 30
0.0000
  0
SEQEND
  8
0
  0
ENDBLK
  8
0
  0
BLOCK
  8
0
  2
SQUAREP
 70
64
 10
0.0000
 20
0.0000
 30
0.0000
  3
SQUAREP
  0
SOLID
  8
0
 10
-0.5000
 20
-0.5000
 30
0.0000
 11
0.5000
 21
-0.5000
 31
0.0000
 12
-0.5000
 22
0.5000
 32
0.0000
 13
0.5000
 23
0.5000
 33
0.0000
  0
ENDBLK
  8
0
  0
BLOCK
  8
0
  2
ROUNDP
 70
64
 10
0.0000
 20
0.0000
 30
0.0000
  3
ROUNDP
  0
CIRCLE
  8
0
 10
0.0000
 20
0.0000
 30
0.0000
 40
0.5000
  0
ENDBLK
  8
0
  0
BLOCK
  8
0
  2
ANNULUSP
 70
64
 10
0.0000
 20
0.0000
 30
0.0000
  3
ANNULUSP
  0
CIRCLE
  8
0
 10
0.0000
 20
0.0000
 30
0.0000
 40
0.5000
  0
ENDBLK
  8
0
  0
BLOCK
  8
0
  2
THERMALP
 70
64
 10
0.0000
 20
0.0000
 30
0.0000
  3
THERMALP
  0
LINE
  8
0
 10
-0.2379
 20
0.4500
 30
0.0000
 11
0.2379
 21
0.4500
 31
0.0000
  0
LINE
  8
0
 10
0.4500
 20
0.2379
 30
0.0000
 11
0.4500
 21
-0.2379
 31
0.0000
  0
LINE
  8
0
 10
0.2379
 20
-0.4500
 30
0.0000
 11
-0.2379
 21
-0.4500
 31
0.0000
  0
LINE
  8
0
 10
-0.4500
 20
-0.2379
 30
0.0000
 11
-0.4500
 21
0.2379
 31
0.0000
  0
ENDBLK
  8
0
  0
BLOCK
  8
0
  2
OCTAGONV
 70
64
 10
0.0000
 20
0.0000
 30
0.0000
  3
OCTAGONV
  0
POLYLINE
  8
0
 66
1
 10
0.0000
 20
0.0000
 30
0.0000
 40
0.0000
 41
0.0000
 70
1
  0
VERTEX
  8
0
 10
-0.5000
 20
-0.2071
 30
0.0000
  0
VERTEX
  8
0
 10
-0.5000
 20
0.2071
 30
0.0000
  0
VERTEX
  8
0
 10
-0.2071
 20
0.5000
 30
0.0000
  0
VERTEX
  8
0
 10
0.2071
 20
0.5000
 30
0.0000
  0
VERTEX
  8
0
 10
0.5000
 20
0.2071
 30
0.0000
  0
VERTEX
  8
0
 10
0.5000
 20
-0.2071
 30
0.0000
  0
VERTEX
  8
0
 10
0.2071
 20
-0.5000
 30
0.0000
  0
VERTEX
  8
0
 10
-0.2071
 20
-0.5000
 30
0.0000
  0
SEQEND
  8
0
  0
ENDBLK
  8
0
  0
BLOCK
  8
0
  2
SQUAREV
 70
64
 10
0.0000
 20
0.0000
 30
0.0000
  3
SQUAREV
  0
SOLID
  8
0
 10
-0.5000
 20
-0.5000
 30
0.0000
 11
0.5000
 21
-0.5000
 31
0.0000
 12
-0.5000
 22
0.5000
 32
0.0000
 13
0.5000
 23
0.5000
 33
0.0000
  0
ENDBLK
  8
0
  0
BLOCK
  8
0
  2
ROUNDV
 70
64
 10
0.0000
 20
0.0000
 30
0.0000
  3
ROUNDV
  0
CIRCLE
  8
0
 10
0.0000
 20
0.0000
 30
0.0000
 40
0.5000
  0
ENDBLK
  8
0
  0
BLOCK
  8
0
  2
ANNULUSV
 70
64
 10
0.0000
 20
0.0000
 30
0.0000
  3
ANNULUSV
  0
CIRCLE
  8
0
 10
0.0000
 20
0.0000
 30
0.0000
 40
0.5000
  0
ENDBLK
  8
0
  0
BLOCK
  8
0
  2
THERMALV
 70
64
 10
0.0000
 20
0.0000
 30
0.0000
  3
THERMALV
  0
LINE
  8
0
 10
-0.2379
 20
0.4500
 30
0.0000
 11
0.2379
 21
0.4500
 31
0.0000
  0
LINE
  8
0
 10
0.4500
 20
0.2379
 30
0.0000
 11
0.4500
 21
-0.2379
 31
0.0000
  0
LINE
  8
0
 10
0.2379
 20
-0.4500
 30
0.0000
 11
-0.2379
 21
-0.4500
 31
0.0000
  0
LINE
  8
0
 10
-0.4500
 20
-0.2379
 30
0.0000
 11
-0.4500
 21
0.2379
 31
0.0000
  0
ENDBLK
  8
0
  0
ENDSEC
  0
SECTION
  2
ENTITIES
  0
LINE
  8
20
 10
0.0000
 20
0.0000
 30
0.0000
 11
0.0000
 21
74.0000
 31
0.0000
  0
LINE
  8
20
 10
0.0000
 20
74.0000
 30
0.0000
 11
83.0000
 21
74.0000
 31
0.0000
  0
LINE
  8
20
 10
83.0000
 20
74.0000
 30
0.0000
 11
83.0000
 21
0.0000
 31
0.0000
  0
LINE
  8
20
 10
83.0000
 20
0.0000
 30
0.0000
 11
0.0000
 21
0.0000
 31
0.0000
  0
CIRCLE
  8
20
 10
3.0000
 20
3.0000
 30
0.0000
 40
1.6000
  0
CIRCLE
  8
20
 10
3.0000
 20
71.0000
 30
0.0000
 40
1.6000
  0
CIRCLE
  8
20
 10
80.0000
 20
3.0000
 30
0.0000
 40
1.6000
  0
CIRCLE
  8
20
 10
80.0000
 20
71.0000
 30
0.0000
 40
1.6000
  0
CIRCLE
  8
20
 10
42.5000
 20
20.0000
 30
0.0000
 40
1.6000
  0
CIRCLE
  8
20
 10
42.5000
 20
54.0000
 30
0.0000
 40
1.6000
  0
CIRCLE
  8
20
 10
30.0250
 20
10.0250
 30
0.0000
 40
0.8000
  0
CIRCLE
  8
20
 10
29.0000
 20
12.5000
 30
0.0000
 40
0.8000
  0
CIRCLE
  8
20
 10
30.0250
 20
14.9750
 30
0.0000
 40
0.8000
  0
CIRCLE
  8
20
 10
32.5000
 20
16.0000
 30
0.0000
 40
0.8000
  0
CIRCLE
  8
20
 10
34.9750
 20
14.9750
 30
0.0000
 40
0.8000
  0
CIRCLE
  8
20
 10
36.0000
 20
12.5000
 30
0.0000
 40
0.8000
  0
CIRCLE
  8
20
 10
34.9750
 20
10.0250
 30
0.0000
 40
0.8000
  0
CIRCLE
  8
20
 10
49.1710
 20
11.4180
 30
0.0000
 40
0.8000
  0
CIRCLE
  8
20
 10
50.4430
 20
15.3320
 30
0.0000
 40
0.8000
  0
CIRCLE
  8
20
 10
54.5570
 20
15.3320
 30
0.0000
 40
0.8000
  0
CIRCLE
  8
20
 10
55.8290
 20
11.4180
 30
0.0000
 40
0.8000
  0
CIRCLE
  8
20
 10
32.5000
 20
35.1000
 30
0.0000
 40
0.8000
  0
CIRCLE
  8
20
 10
29.2000
 20
33.1000
 30
0.0000
 40
0.8000
  0
CIRCLE
  8
20
 10
29.0000
 20
36.0000
 30
0.0000
 40
0.8000
  0
CIRCLE
  8
20
 10
30.0300
 20
38.4700
 30
0.0000
 40
0.8000
  0
CIRCLE
  8
20
 10
32.5000
 20
39.5000
 30
0.0000
 40
0.8000
  0
CIRCLE
  8
20
 10
34.9700
 20
38.4700
 30
0.0000
 40
0.8000
  0
CIRCLE
  8
20
 10
36.0000
 20
36.0000
 30
0.0000
 40
0.8000
  0
CIRCLE
  8
20
 10
35.8000
 20
33.1000
 30
0.0000
 40
0.8000
  0
CIRCLE
  8
20
 10
52.5000
 20
36.0000
 30
0.0000
 40
0.8000
  0
CIRCLE
  8
20
 10
49.4690
 20
34.2500
 30
0.0000
 40
0.8000
  0
CIRCLE
  8
20
 10
49.4690
 20
37.7500
 30
0.0000
 40
0.8000
  0
CIRCLE
  8
20
 10
52.5000
 20
39.5000
 30
0.0000
 40
0.8000
  0
CIRCLE
  8
20
 10
55.5310
 20
37.7500
 30
0.0000
 40
0.8000
  0
CIRCLE
  8
20
 10
55.5310
 20
34.2500
 30
0.0000
 40
0.8000
  0
CIRCLE
  8
20
 10
32.5000
 20
58.6000
 30
0.0000
 40
0.8000
  0
CIRCLE
  8
20
 10
30.0250
 20
57.0250
 30
0.0000
 40
0.8000
  0
CIRCLE
  8
20
 10
29.0000
 20
59.5000
 30
0.0000
 40
0.8000
  0
CIRCLE
  8
20
 10
30.0250
 20
61.9750
 30
0.0000
 40
0.8000
  0
CIRCLE
  8
20
 10
32.5000
 20
63.0000
 30
0.0000
 40
0.8000
  0
CIRCLE
  8
20
 10
34.9750
 20
61.9750
 30
0.0000
 40
0.8000
  0
CIRCLE
  8
20
 10
36.0000
 20
59.5000
 30
0.0000
 40
0.8000
  0
CIRCLE
  8
20
 10
34.9750
 20
57.0250
 30
0.0000
 40
0.8000
  0
CIRCLE
  8
20
 10
52.5000
 20
59.5000
 30
0.0000
 40
0.8000
  0
CIRCLE
  8
20
 10
50.0250
 20
57.0250
 30
0.0000
 40
0.8000
  0
CIRCLE
  8
20
 10
50.0250
 20
61.9750
 30
0.0000
 40
0.8000
  0
CIRCLE
  8
20
 10
54.9750
 20
61.9750
 30
0.0000
 40
0.8000
  0
CIRCLE
  8
20
 10
54.9750
 20
57.0250
 30
0.0000
 40
0.8000
  0
ENDSEC
  0
EOF
